# 3ds Max Wavefront OBJ Exporter v0.97b - (c)2007 guruware
# File Created: 05.04.2013 19:49:08

#
# object Plane09
#

v  -11.3579 -16.4584 5.7606
v  -1.5716 -16.4584 -7.0707
v  -20.1401 4.0577 -0.9376
v  -10.3538 4.0577 -13.7688
v  -36.2722 15.5150 -13.2415
v  -26.4859 15.5150 -26.0727
v  -54.7769 14.3784 -27.3549
v  -44.9906 14.3784 -40.1861
v  -69.9445 0.9986 -38.9232
v  -60.1582 0.9986 -51.7544
v  -5.0425 -25.6351 -8.1019
v  -16.0875 -5.1190 -8.1019
v  -5.0425 -25.6351 8.0355
v  -16.0875 -5.1190 8.0355
v  -36.3762 6.3383 -8.1019
v  -36.3762 6.3383 8.0355
v  -59.6487 5.2017 -8.1019
v  -59.6487 5.2017 8.0355
v  -78.7244 -8.1781 -8.1019
v  -78.7244 -8.1781 8.0355
v  -9.5276 -25.6351 -0.4149
v  -15.7174 -5.1190 8.7326
v  3.8375 -25.6351 8.6288
v  -2.3524 -5.1190 17.7764
v  -27.0877 6.3383 25.5359
v  -13.7226 6.3383 34.5796
v  -40.1301 5.2017 44.8103
v  -26.7651 5.2017 53.8540
v  -50.8206 -8.1781 60.6090
v  -37.4555 -8.1781 69.6527
v  -3.9245 -25.6351 -8.6952
v  9.4405 -25.6351 0.3485
v  2.2653 -5.1190 -17.8428
v  15.6304 -5.1190 -8.7990
v  13.6356 6.3383 -34.6460
v  27.0006 6.3383 -25.6023
v  26.6780 5.2017 -53.9205
v  40.0431 5.2017 -44.8767
v  37.3685 -8.1781 -69.7191
v  50.7335 -8.1781 -60.6754
v  -5.6747 -25.6351 7.6076
v  -1.5676 -5.1190 17.8606
v  9.3054 -25.6351 1.6069
v  13.4125 -5.1190 11.8599
v  5.9768 6.3383 36.6944
v  20.9570 6.3383 30.6937
v  14.6308 5.2017 58.2981
v  29.6109 5.2017 52.2974
v  21.7241 -8.1781 76.0059
v  36.7043 -8.1781 70.0052
v  -9.3925 -25.6351 -1.6733
v  5.5877 -25.6351 -7.6741
v  -13.4996 -5.1190 -11.9263
v  1.4806 -5.1190 -17.9270
v  -21.0440 6.3383 -30.7601
v  -6.0639 6.3383 -36.7608
v  -29.6980 5.2017 -52.3638
v  -14.7178 5.2017 -58.3645
v  -36.7913 -8.1781 -70.0716
v  -21.8112 -8.1781 -76.0723
v  -3.4083 -16.4584 11.8237
v  5.3739 4.0577 18.5218
v  6.3780 -16.4584 -1.0076
v  15.1602 4.0577 5.6906
v  21.5060 15.5150 30.8257
v  31.2923 15.5150 17.9945
v  40.0106 14.3784 44.9391
v  49.7970 14.3784 32.1079
v  55.1783 0.9986 56.5074
v  64.9646 0.9986 43.6762
v  -10.2625 -16.4584 -3.0715
v  5.8489 -16.4584 -2.1573
v  -9.6368 4.0577 -14.0988
v  6.4746 4.0577 -13.1846
v  -8.4874 15.5150 -34.3549
v  7.6240 15.5150 -33.4407
v  -7.1690 14.3784 -57.5900
v  8.9424 14.3784 -56.6758
v  -6.0884 0.9986 -76.6351
v  10.0231 0.9986 -75.7209
v  4.9554 -25.6351 -8.1019
v  4.9554 -25.6351 8.0355
v  16.0004 -5.1190 -8.1019
v  16.0004 -5.1190 8.0355
v  36.2891 6.3383 -8.1019
v  36.2891 6.3383 8.0355
v  59.5616 5.2017 -8.1019
v  59.5616 5.2017 8.0355
v  78.6373 -8.1781 -8.1019
v  78.6373 -8.1781 8.0355
# 90 vertices

vn 0.7001 0.4740 0.5340
vn 0.5679 0.6999 0.4331
vn 0.1833 0.9731 0.1398
vn -0.2578 0.9460 -0.1966
vn -0.4566 0.8187 -0.3482
vn 0.8805 0.4740 -0.0000
vn 0.7142 0.6999 0.0000
vn 0.2305 0.9731 0.0000
vn -0.3243 0.9460 0.0000
vn -0.5742 0.8187 0.0000
vn 0.4935 0.4740 -0.7292
vn 0.4003 0.6999 -0.5915
vn 0.1292 0.9731 -0.1909
vn -0.1817 0.9460 0.2686
vn -0.3218 0.8187 0.4756
vn -0.4935 0.4740 0.7292
vn -0.4003 0.6999 0.5915
vn -0.1292 0.9731 0.1909
vn 0.1817 0.9460 -0.2686
vn 0.3218 0.8187 -0.4756
vn -0.3274 0.4740 -0.8174
vn -0.2656 0.6999 -0.6630
vn -0.0857 0.9731 -0.2140
vn 0.1206 0.9460 0.3010
vn 0.2135 0.8187 0.5331
vn 0.3274 0.4740 0.8174
vn 0.2656 0.6999 0.6630
vn 0.0857 0.9731 0.2140
vn -0.1206 0.9460 -0.3010
vn -0.2135 0.8187 -0.5331
vn -0.7001 0.4740 -0.5340
vn -0.5679 0.6999 -0.4331
vn -0.1833 0.9731 -0.1398
vn 0.2578 0.9460 0.1966
vn 0.4566 0.8187 0.3482
vn -0.0499 0.4740 0.8791
vn -0.0405 0.6999 0.7131
vn -0.0131 0.9731 0.2302
vn 0.0184 0.9460 -0.3237
vn 0.0325 0.8187 -0.5733
vn -0.8805 0.4740 0.0000
vn -0.7142 0.6999 -0.0000
vn -0.7142 0.6999 0.0000
vn -0.2305 0.9731 0.0000
vn 0.3243 0.9460 0.0000
vn 0.5742 0.8187 0.0000
# 46 vertex normals

vt 0.0101 0.9573 0.6980
vt 0.0101 0.0427 0.6980
vt 0.2834 0.9573 0.9040
vt 0.2834 0.0427 0.9040
vt 0.5990 0.9573 0.8882
vt 0.5990 0.0427 0.8882
vt 0.8594 0.9573 0.6555
vt 0.8594 0.0427 0.6555
vt 0.9843 0.9573 0.2776
vt 0.9843 0.0427 0.2776
# 10 texture coords

g Plane09
f 1/1/1 2/2/1 3/3/2 
f 4/4/2 3/3/2 2/2/1 
f 3/3/2 4/4/2 5/5/3 
f 6/6/3 5/5/3 4/4/2 
f 5/5/3 6/6/3 7/7/4 
f 8/8/4 7/7/4 6/6/3 
f 7/7/4 8/8/4 9/9/5 
f 10/10/5 9/9/5 8/8/4 
f 11/1/6 12/3/7 13/2/6 
f 14/4/7 13/2/6 12/3/7 
f 12/3/7 15/5/8 14/4/7 
f 16/6/8 14/4/7 15/5/8 
f 15/5/8 17/7/9 16/6/8 
f 18/8/9 16/6/8 17/7/9 
f 17/7/9 19/9/10 18/8/9 
f 20/10/10 18/8/9 19/9/10 
f 21/1/11 22/3/12 23/2/11 
f 24/4/12 23/2/11 22/3/12 
f 22/3/12 25/5/13 24/4/12 
f 26/6/13 24/4/12 25/5/13 
f 25/5/13 27/7/14 26/6/13 
f 28/8/14 26/6/13 27/7/14 
f 27/7/14 29/9/15 28/8/14 
f 30/10/15 28/8/14 29/9/15 
f 31/1/16 32/2/16 33/3/17 
f 34/4/17 33/3/17 32/2/16 
f 33/3/17 34/4/17 35/5/18 
f 36/6/18 35/5/18 34/4/17 
f 35/5/18 36/6/18 37/7/19 
f 38/8/19 37/7/19 36/6/18 
f 37/7/19 38/8/19 39/9/20 
f 40/10/20 39/9/20 38/8/19 
f 41/1/21 42/3/22 43/2/21 
f 44/4/22 43/2/21 42/3/22 
f 42/3/22 45/5/23 44/4/22 
f 46/6/23 44/4/22 45/5/23 
f 45/5/23 47/7/24 46/6/23 
f 48/8/24 46/6/23 47/7/24 
f 47/7/24 49/9/25 48/8/24 
f 50/10/25 48/8/24 49/9/25 
f 51/1/26 52/2/26 53/3/27 
f 54/4/27 53/3/27 52/2/26 
f 53/3/27 54/4/27 55/5/28 
f 56/6/28 55/5/28 54/4/27 
f 55/5/28 56/6/28 57/7/29 
f 58/8/29 57/7/29 56/6/28 
f 57/7/29 58/8/29 59/9/30 
f 60/10/30 59/9/30 58/8/29 
f 61/1/31 62/3/32 63/2/31 
f 64/4/32 63/2/31 62/3/32 
f 62/3/32 65/5/33 64/4/32 
f 66/6/33 64/4/32 65/5/33 
f 65/5/33 67/7/34 66/6/33 
f 68/8/34 66/6/33 67/7/34 
f 67/7/34 69/9/35 68/8/34 
f 70/10/35 68/8/34 69/9/35 
f 71/1/36 72/2/36 73/3/37 
f 74/4/37 73/3/37 72/2/36 
f 73/3/37 74/4/37 75/5/38 
f 76/6/38 75/5/38 74/4/37 
f 75/5/38 76/6/38 77/7/39 
f 78/8/39 77/7/39 76/6/38 
f 77/7/39 78/8/39 79/9/40 
f 80/10/40 79/9/40 78/8/39 
f 81/1/41 82/2/41 83/3/42 
f 84/4/43 83/3/42 82/2/41 
f 83/3/42 84/4/43 85/5/44 
f 86/6/44 85/5/44 84/4/43 
f 85/5/44 86/6/44 87/7/45 
f 88/8/45 87/7/45 86/6/44 
f 87/7/45 88/8/45 89/9/46 
f 90/10/46 89/9/46 88/8/45 
# 72 faces

