# 3ds Max Wavefront OBJ Exporter v0.97b - (c)2007 guruware
# File Created: 21.02.2013 19:36:20

#
# object Box001
#

v  -2.0575 4.2609 4.4287
v  -2.0575 5.2856 4.4287
v  -4.2126 5.2856 4.4287
v  -4.2126 4.2609 4.4287
v  -2.0575 3.2361 4.4287
v  -4.2126 3.2361 4.4287
v  -2.0575 2.2114 4.4287
v  -4.2126 2.2114 4.4287
v  -2.0575 1.1866 4.4287
v  -4.2126 1.1866 4.4287
v  0.0976 4.2609 4.4287
v  0.0976 5.2856 4.4287
v  0.0976 3.2361 4.4287
v  0.0976 2.2114 4.4287
v  0.0976 1.1866 4.4287
v  2.2527 4.2609 4.4287
v  2.2527 5.2856 4.4287
v  2.2527 3.2361 4.4287
v  2.2527 2.2114 4.4287
v  2.2527 1.1866 4.4287
v  4.4079 4.2609 4.4287
v  4.4079 5.2856 4.4287
v  4.4079 3.2361 4.4287
v  4.4079 2.2114 4.4287
v  4.4079 1.1866 4.4287
v  -4.2126 6.3103 4.4287
v  -6.3678 6.3103 4.4287
v  -6.3678 5.2856 4.4287
v  -6.3678 1.1866 4.4287
v  -6.3678 0.1619 4.4287
v  -4.2126 0.1619 4.4287
v  4.4079 0.1619 4.4287
v  6.5630 0.1619 4.4287
v  6.5630 1.1866 4.4287
v  6.5630 5.2856 4.4287
v  6.5630 6.3103 4.4287
v  4.4079 6.3103 4.4287
v  -6.3678 4.2609 4.4287
v  -2.0575 0.1619 4.4287
v  6.5630 2.2114 4.4287
v  2.2527 6.3103 4.4287
v  -6.3678 3.2361 4.4287
v  0.0976 0.1619 4.4287
v  6.5630 3.2361 4.4287
v  0.0976 6.3103 4.4287
v  -6.3678 2.2114 4.4287
v  2.2527 0.1619 4.4287
v  6.5630 4.2609 4.4287
v  -2.0575 6.3103 4.4287
v  6.5630 3.2361 1.4742
v  6.5630 4.2609 1.4742
v  6.5630 4.2609 2.9515
v  6.5630 3.2361 2.9515
v  6.5630 2.2114 1.4742
v  6.5630 2.2114 2.9515
v  6.5630 1.1866 1.4742
v  6.5630 1.1866 2.9515
v  6.5630 4.2609 -0.0030
v  6.5630 5.2856 -0.0030
v  6.5630 5.2856 1.4742
v  6.5630 3.2361 -0.0030
v  6.5630 2.2114 -0.0030
v  6.5630 1.1866 -0.0030
v  6.5630 3.2361 -1.4803
v  6.5630 4.2609 -1.4803
v  6.5630 2.2114 -1.4803
v  6.5630 1.1866 -1.4803
v  6.5630 4.2609 -2.9575
v  6.5630 5.2856 -2.9575
v  6.5630 5.2856 -1.4803
v  6.5630 3.2361 -2.9575
v  6.5630 2.2114 -2.9575
v  6.5630 1.1866 -2.9575
v  6.5630 5.2856 2.9515
v  6.5630 6.3103 2.9515
v  6.5630 0.1619 2.9515
v  6.5630 0.1619 -2.9575
v  6.5630 0.1619 -4.4348
v  6.5630 1.1866 -4.4348
v  6.5630 5.2856 -4.4348
v  6.5630 6.3103 -4.4348
v  6.5630 6.3103 -2.9575
v  6.5630 0.1619 1.4742
v  6.5630 2.2114 -4.4348
v  6.5630 6.3103 -1.4803
v  6.5630 0.1619 -0.0030
v  6.5630 3.2361 -4.4348
v  6.5630 6.3103 -0.0030
v  6.5630 0.1619 -1.4803
v  6.5630 4.2609 -4.4348
v  6.5630 6.3103 1.4742
v  2.2527 4.2609 -4.4348
v  2.2527 5.2856 -4.4348
v  4.4079 5.2856 -4.4348
v  4.4079 4.2609 -4.4348
v  2.2527 3.2361 -4.4348
v  4.4079 3.2361 -4.4348
v  2.2527 2.2114 -4.4348
v  4.4079 2.2114 -4.4348
v  2.2527 1.1866 -4.4348
v  4.4079 1.1866 -4.4348
v  0.0976 4.2609 -4.4348
v  0.0976 5.2856 -4.4348
v  0.0976 3.2361 -4.4348
v  0.0976 2.2114 -4.4348
v  -2.0575 4.2609 -4.4348
v  -2.0575 5.2856 -4.4348
v  -2.0575 3.2361 -4.4348
v  -2.0575 2.2114 -4.4348
v  -4.2126 4.2609 -4.4348
v  -4.2126 5.2856 -4.4348
v  -4.2126 3.2361 -4.4348
v  -4.2126 2.2114 -4.4348
v  -4.2126 1.1866 -4.4348
v  -2.0575 1.1866 -4.4348
v  4.4079 6.3103 -4.4348
v  4.4079 0.1619 -4.4348
v  -4.2126 0.1619 -4.4348
v  -6.3678 0.1619 -4.4348
v  -6.3678 1.1866 -4.4348
v  -6.3678 5.2856 -4.4348
v  -6.3678 6.3103 -4.4348
v  -4.2126 6.3103 -4.4348
v  2.2527 0.1619 -4.4348
v  -6.3678 2.2114 -4.4348
v  -2.0575 6.3103 -4.4348
v  -6.3678 3.2361 -4.4348
v  0.0976 6.3103 -4.4348
v  -6.3678 4.2609 -4.4348
v  2.2527 6.3103 -4.4348
v  -2.0575 0.1619 -4.4348
v  -6.3678 4.2609 -1.4803
v  -6.3678 5.2856 -1.4803
v  -6.3678 5.2856 -2.9575
v  -6.3678 4.2609 -2.9575
v  -6.3678 3.2361 -1.4803
v  -6.3678 3.2361 -2.9575
v  -6.3678 2.2114 -1.4803
v  -6.3678 2.2114 -2.9575
v  -6.3678 1.1866 -1.4803
v  -6.3678 1.1866 -2.9575
v  -6.3678 4.2609 -0.0030
v  -6.3678 5.2856 -0.0030
v  -6.3678 2.2114 -0.0030
v  -6.3678 3.2361 -0.0030
v  -6.3678 1.1866 -0.0030
v  -6.3678 4.2609 1.4742
v  -6.3678 5.2856 1.4742
v  -6.3678 3.2361 1.4742
v  -6.3678 2.2114 1.4742
v  -6.3678 1.1866 1.4742
v  -6.3678 4.2609 2.9515
v  -6.3678 5.2856 2.9515
v  -6.3678 2.2114 2.9515
v  -6.3678 3.2361 2.9515
v  -6.3678 1.1866 2.9515
v  -6.3678 6.3103 -2.9575
v  -6.3678 0.1619 -2.9575
v  -6.3678 0.1619 2.9515
v  -6.3678 6.3103 2.9515
v  -6.3678 0.1619 -1.4803
v  -6.3678 6.3103 1.4742
v  -6.3678 0.1619 -0.0030
v  -6.3678 6.3103 -0.0030
v  -6.3678 0.1619 1.4742
v  -6.3678 6.3103 -1.4803
v  -2.0575 0.1619 1.4742
v  -2.0575 0.1619 2.9515
v  -4.2126 0.1619 2.9515
v  -4.2126 0.1619 1.4742
v  -2.0575 0.1619 -0.0030
v  -4.2126 0.1619 -0.0030
v  -2.0575 0.1619 -1.4803
v  -4.2126 0.1619 -1.4803
v  -2.0575 0.1619 -2.9575
v  -4.2126 0.1619 -2.9575
v  0.0976 0.1619 1.4742
v  0.0976 0.1619 2.9515
v  0.0976 0.1619 -0.0030
v  0.0976 0.1619 -1.4803
v  0.0976 0.1619 -2.9575
v  2.2527 0.1619 1.4742
v  2.2527 0.1619 2.9515
v  2.2527 0.1619 -0.0030
v  2.2527 0.1619 -1.4803
v  2.2527 0.1619 -2.9575
v  4.4079 0.1619 1.4742
v  4.4079 0.1619 2.9515
v  4.4079 0.1619 -0.0030
v  4.4079 0.1619 -1.4803
v  4.4079 0.1619 -2.9575
v  0.0976 0.1619 -4.4348
v  -2.0575 6.3103 -1.4803
v  -2.0575 6.3103 -2.9575
v  -4.2126 6.3103 -2.9575
v  -4.2126 6.3103 -1.4803
v  -2.0575 6.3103 -0.0030
v  -4.2126 6.3103 -0.0030
v  -2.0575 6.3103 1.4742
v  -4.2126 6.3103 1.4742
v  -2.0575 6.3103 2.9515
v  -4.2126 6.3103 2.9515
v  0.0976 6.3103 -1.4803
v  0.0976 6.3103 -2.9575
v  0.0976 6.3103 -0.0030
v  0.0976 6.3103 1.4742
v  0.0976 6.3103 2.9515
v  2.2527 6.3103 -1.4803
v  2.2527 6.3103 -2.9575
v  2.2527 6.3103 -0.0030
v  2.2527 6.3103 1.4742
v  2.2527 6.3103 2.9515
v  4.4079 6.3103 -1.4803
v  4.4079 6.3103 -2.9575
v  4.4079 6.3103 -0.0030
v  4.4079 6.3103 1.4742
v  4.4079 6.3103 2.9515
v  -7.5136 6.2192 -2.4572
v  -7.5136 6.2192 -4.4583
v  7.4101 6.2192 -4.4583
v  7.4101 6.2192 -2.4572
v  -7.5136 9.5071 -2.4572
v  7.4101 9.5071 -2.4572
v  7.4101 9.5071 -4.4583
v  -7.5136 9.5071 -4.4583
v  6.9850 6.6443 -3.5231
v  -7.0885 6.6443 -3.5231
v  -7.0885 9.0820 -3.5231
v  6.9850 9.0820 -3.5231
v  -7.0885 6.6443 -4.4583
v  6.9850 6.6443 -4.4583
v  -7.0885 9.0820 -4.4583
v  6.9850 9.0820 -4.4583
v  -4.9016 3.2668 -2.8245
v  4.5977 3.2970 -2.6614
v  4.6074 3.2847 -3.2245
v  -4.8919 3.2545 -3.3875
v  -4.8305 2.5249 -6.8274
v  -4.8208 2.5126 -7.3905
v  4.6784 2.5428 -7.2274
v  4.6687 2.5551 -6.6644
v  3.8123 -0.4699 -5.7585
v  3.8123 -0.4699 -5.9784
v  3.9985 -0.4699 -5.9784
v  3.9985 -0.4699 -5.7585
v  3.8123 2.6963 -5.7585
v  3.9985 2.6963 -5.7585
v  3.9985 2.6963 -5.9784
v  3.8123 2.6963 -5.9784
v  -4.2651 -0.4699 -6.2868
v  -4.2651 -0.4699 -6.5067
v  -4.0790 -0.4699 -6.5067
v  -4.0790 -0.4699 -6.2868
v  -4.2651 2.6963 -6.2868
v  -4.0790 2.6963 -6.2868
v  -4.0790 2.6963 -6.5067
v  -4.2651 2.6963 -6.5067
# 257 vertices

vn -0.0000 0.0000 1.0000
vn -0.0000 -0.0000 1.0000
vn 0.0000 -0.0000 1.0000
vn 0.0000 0.0000 1.0000
vn 1.0000 0.0000 -0.0000
vn 1.0000 -0.0000 -0.0000
vn 1.0000 0.0000 0.0000
vn 1.0000 -0.0000 0.0000
vn 0.0000 0.0000 -1.0000
vn 0.0000 -0.0000 -1.0000
vn -0.0000 -0.0000 -1.0000
vn -0.0000 0.0000 -1.0000
vn -1.0000 0.0000 -0.0000
vn -1.0000 -0.0000 0.0000
vn -1.0000 0.0000 0.0000
vn -1.0000 -0.0000 -0.0000
vn 0.0000 -1.0000 -0.0000
vn -0.0000 1.0000 -0.0000
vn 0.0000 1.0000 0.0000
vn 0.0000 1.0000 -0.0000
vn -0.0000 1.0000 0.0000
vn -0.0028 0.9998 -0.0220
vn 0.0028 -0.9998 0.0220
vn 0.0000 -0.9833 0.1822
vn 0.9998 0.0032 0.0172
vn -0.0000 0.9833 -0.1822
vn -0.9998 -0.0032 -0.0172
# 27 vertex normals

vt 0.3333 0.6667 0.0000
vt 0.3333 0.8333 0.0000
vt 0.1667 0.8333 0.0000
vt 0.1667 0.6667 0.0000
vt 0.3333 0.5000 0.0000
vt 0.1667 0.5000 0.0000
vt 0.3333 0.3333 0.0000
vt 0.1667 0.3333 0.0000
vt 0.3333 0.1667 0.0000
vt 0.1667 0.1667 0.0000
vt 0.5000 0.6667 0.0000
vt 0.5000 0.8333 0.0000
vt 0.5000 0.5000 0.0000
vt 0.5000 0.3333 0.0000
vt 0.5000 0.1667 0.0000
vt 0.6667 0.6667 0.0000
vt 0.6667 0.8333 0.0000
vt 0.6667 0.5000 0.0000
vt 0.6667 0.3333 0.0000
vt 0.6667 0.1667 0.0000
vt 0.8333 0.6667 0.0000
vt 0.8333 0.8333 0.0000
vt 0.8333 0.5000 0.0000
vt 0.8333 0.3333 0.0000
vt 0.8333 0.1667 0.0000
vt 0.1667 1.0000 0.0000
vt 0.0000 1.0000 0.0000
vt 0.0000 0.8333 0.0000
vt 0.0000 0.1667 0.0000
vt 0.0000 0.0000 0.0000
vt 0.1667 0.0000 0.0000
vt 0.8333 0.0000 0.0000
vt 1.0000 0.0000 0.0000
vt 1.0000 0.1667 0.0000
vt 1.0000 0.8333 0.0000
vt 1.0000 1.0000 0.0000
vt 0.8333 1.0000 0.0000
vt 0.0000 0.6667 0.0000
vt 0.3333 0.0000 0.0000
vt 1.0000 0.3333 0.0000
vt 0.6667 1.0000 0.0000
vt 0.0000 0.5000 0.0000
vt 0.5000 0.0000 0.0000
vt 1.0000 0.5000 0.0000
vt 0.5000 1.0000 0.0000
vt 0.0000 0.3333 0.0000
vt 0.6667 0.0000 0.0000
vt 1.0000 0.6667 0.0000
vt 0.3333 1.0000 0.0000
# 49 texture coords

g Box001
f 1/1/1 2/2/2 3/3/3 
f 3/3/3 4/4/4 1/1/1 
f 5/5/1 1/1/1 4/4/4 
f 4/4/4 6/6/4 5/5/1 
f 7/7/1 5/5/1 6/6/4 
f 6/6/4 8/8/4 7/7/1 
f 9/9/2 7/7/1 8/8/4 
f 8/8/4 10/10/3 9/9/2 
f 11/11/1 12/12/2 2/2/2 
f 2/2/2 1/1/1 11/11/1 
f 13/13/1 11/11/1 1/1/1 
f 1/1/1 5/5/1 13/13/1 
f 14/14/1 13/13/1 5/5/1 
f 5/5/1 7/7/1 14/14/1 
f 15/15/1 14/14/1 7/7/1 
f 7/7/1 9/9/2 15/15/1 
f 16/16/1 17/17/2 12/12/2 
f 12/12/2 11/11/1 16/16/1 
f 18/18/1 16/16/1 11/11/1 
f 11/11/1 13/13/1 18/18/1 
f 19/19/1 18/18/1 13/13/1 
f 13/13/1 14/14/1 19/19/1 
f 20/20/2 19/19/1 14/14/1 
f 14/14/1 15/15/1 20/20/2 
f 21/21/1 22/22/1 17/17/2 
f 17/17/2 16/16/1 21/21/1 
f 23/23/4 21/21/1 16/16/1 
f 16/16/1 18/18/1 23/23/4 
f 24/24/4 23/23/4 18/18/1 
f 18/18/1 19/19/1 24/24/4 
f 25/25/3 24/24/4 19/19/1 
f 19/19/1 20/20/2 25/25/3 
f 3/3/3 26/26/3 27/27/3 
f 27/27/3 28/28/3 3/3/3 
f 29/29/3 30/30/4 31/31/3 
f 31/31/3 10/10/3 29/29/3 
f 25/25/3 32/32/2 33/33/4 
f 33/33/4 34/34/4 25/25/3 
f 35/35/1 36/36/2 37/37/1 
f 37/37/1 22/22/1 35/35/1 
f 4/4/4 3/3/3 28/28/3 
f 28/28/3 38/38/4 4/4/4 
f 10/10/3 31/31/3 39/39/2 
f 39/39/2 9/9/2 10/10/3 
f 24/24/4 25/25/3 34/34/4 
f 34/34/4 40/40/3 24/24/4 
f 22/22/1 37/37/1 41/41/4 
f 41/41/4 17/17/2 22/22/1 
f 6/6/4 4/4/4 38/38/4 
f 38/38/4 42/42/4 6/6/4 
f 9/9/2 39/39/2 43/43/2 
f 43/43/2 15/15/1 9/9/2 
f 23/23/4 24/24/4 40/40/3 
f 40/40/3 44/44/3 23/23/4 
f 17/17/2 41/41/4 45/45/3 
f 45/45/3 12/12/2 17/17/2 
f 8/8/4 6/6/4 42/42/4 
f 42/42/4 46/46/4 8/8/4 
f 15/15/1 43/43/2 47/47/3 
f 47/47/3 20/20/2 15/15/1 
f 21/21/1 23/23/4 44/44/3 
f 44/44/3 48/48/2 21/21/1 
f 12/12/2 45/45/3 49/49/2 
f 49/49/2 2/2/2 12/12/2 
f 10/10/3 8/8/4 46/46/4 
f 46/46/4 29/29/3 10/10/3 
f 20/20/2 47/47/3 32/32/2 
f 32/32/2 25/25/3 20/20/2 
f 22/22/1 21/21/1 48/48/2 
f 48/48/2 35/35/1 22/22/1 
f 2/2/2 49/49/2 26/26/3 
f 26/26/3 3/3/3 2/2/2 
f 50/5/5 51/1/5 52/4/5 
f 52/4/5 53/6/6 50/5/5 
f 54/7/7 50/5/5 53/6/6 
f 53/6/6 55/8/5 54/7/7 
f 56/9/8 54/7/7 55/8/5 
f 55/8/5 57/10/8 56/9/8 
f 58/11/7 59/12/8 60/2/6 
f 60/2/6 51/1/5 58/11/7 
f 61/13/7 58/11/7 51/1/5 
f 51/1/5 50/5/5 61/13/7 
f 62/14/7 61/13/7 50/5/5 
f 50/5/5 54/7/7 62/14/7 
f 63/15/8 62/14/7 54/7/7 
f 54/7/7 56/9/8 63/15/8 
f 64/18/7 65/16/7 58/11/7 
f 58/11/7 61/13/7 64/18/7 
f 66/19/7 64/18/7 61/13/7 
f 61/13/7 62/14/7 66/19/7 
f 67/20/8 66/19/7 62/14/7 
f 62/14/7 63/15/8 67/20/8 
f 68/21/8 69/22/7 70/17/8 
f 70/17/8 65/16/7 68/21/8 
f 71/23/5 68/21/8 65/16/7 
f 65/16/7 64/18/7 71/23/5 
f 72/24/5 71/23/5 64/18/7 
f 64/18/7 66/19/7 72/24/5 
f 73/25/5 72/24/5 66/19/7 
f 66/19/7 67/20/8 73/25/5 
f 74/3/6 75/26/8 36/27/6 
f 36/27/6 35/28/5 74/3/6 
f 34/29/7 33/30/5 76/31/8 
f 76/31/8 57/10/8 34/29/7 
f 73/25/5 77/32/6 78/33/5 
f 78/33/5 79/34/5 73/25/5 
f 80/35/5 81/36/7 82/37/5 
f 82/37/5 69/22/7 80/35/5 
f 52/4/5 74/3/6 35/28/5 
f 35/28/5 48/38/6 52/4/5 
f 57/10/8 76/31/8 83/39/6 
f 83/39/6 56/9/8 57/10/8 
f 72/24/5 73/25/5 79/34/5 
f 79/34/5 84/40/6 72/24/5 
f 69/22/7 82/37/5 85/41/7 
f 85/41/7 70/17/8 69/22/7 
f 53/6/6 52/4/5 48/38/6 
f 48/38/6 44/42/6 53/6/6 
f 56/9/8 83/39/6 86/43/8 
f 86/43/8 63/15/8 56/9/8 
f 71/23/5 72/24/5 84/40/6 
f 84/40/6 87/44/6 71/23/5 
f 70/17/8 85/41/7 88/45/8 
f 88/45/8 59/12/8 70/17/8 
f 55/8/5 53/6/6 44/42/6 
f 44/42/6 40/46/7 55/8/5 
f 63/15/8 86/43/8 89/47/8 
f 89/47/8 67/20/8 63/15/8 
f 68/21/8 71/23/5 87/44/6 
f 87/44/6 90/48/6 68/21/8 
f 59/12/8 88/45/8 91/49/6 
f 91/49/6 60/2/6 59/12/8 
f 57/10/8 55/8/5 40/46/7 
f 40/46/7 34/29/7 57/10/8 
f 67/20/8 89/47/8 77/32/6 
f 77/32/6 73/25/5 67/20/8 
f 69/22/7 68/21/8 90/48/6 
f 90/48/6 80/35/5 69/22/7 
f 60/2/6 91/49/6 75/26/8 
f 75/26/8 74/3/6 60/2/6 
f 92/1/9 93/2/10 94/3/11 
f 94/3/11 95/4/12 92/1/9 
f 96/5/9 92/1/9 95/4/12 
f 95/4/12 97/6/12 96/5/9 
f 98/7/12 96/5/9 97/6/12 
f 97/6/12 99/8/12 98/7/12 
f 100/9/11 98/7/12 99/8/12 
f 99/8/12 101/10/10 100/9/11 
f 102/11/9 103/12/10 93/2/10 
f 93/2/10 92/1/9 102/11/9 
f 104/13/9 102/11/9 92/1/9 
f 92/1/9 96/5/9 104/13/9 
f 105/14/9 104/13/9 96/5/9 
f 96/5/9 98/7/12 105/14/9 
f 106/16/9 107/17/10 103/12/10 
f 103/12/10 102/11/9 106/16/9 
f 108/18/9 106/16/9 102/11/9 
f 102/11/9 104/13/9 108/18/9 
f 109/19/9 108/18/9 104/13/9 
f 104/13/9 105/14/9 109/19/9 
f 110/21/9 111/22/9 107/17/10 
f 107/17/10 106/16/9 110/21/9 
f 112/23/12 110/21/9 106/16/9 
f 106/16/9 108/18/9 112/23/12 
f 113/24/12 112/23/12 108/18/9 
f 108/18/9 109/19/9 113/24/12 
f 114/25/11 113/24/12 109/19/9 
f 109/19/9 115/20/10 114/25/11 
f 94/3/11 116/26/10 81/27/11 
f 81/27/11 80/28/11 94/3/11 
f 79/29/9 78/30/12 117/31/10 
f 117/31/10 101/10/10 79/29/9 
f 114/25/11 118/32/10 119/33/12 
f 119/33/12 120/34/12 114/25/11 
f 121/35/9 122/36/10 123/37/9 
f 123/37/9 111/22/9 121/35/9 
f 95/4/12 94/3/11 80/28/11 
f 80/28/11 90/38/12 95/4/12 
f 101/10/10 117/31/10 124/39/10 
f 124/39/10 100/9/11 101/10/10 
f 113/24/12 114/25/11 120/34/12 
f 120/34/12 125/40/11 113/24/12 
f 111/22/9 123/37/9 126/41/12 
f 126/41/12 107/17/10 111/22/9 
f 97/6/12 95/4/12 90/38/12 
f 90/38/12 87/42/11 97/6/12 
f 112/23/12 113/24/12 125/40/11 
f 125/40/11 127/44/11 112/23/12 
f 107/17/10 126/41/12 128/45/11 
f 128/45/11 103/12/10 107/17/10 
f 99/8/12 97/6/12 87/42/11 
f 87/42/11 84/46/10 99/8/12 
f 110/21/9 112/23/12 127/44/11 
f 127/44/11 129/48/10 110/21/9 
f 103/12/10 128/45/11 130/49/10 
f 130/49/10 93/2/10 103/12/10 
f 101/10/10 99/8/12 84/46/10 
f 84/46/10 79/29/9 101/10/10 
f 115/20/10 131/47/10 118/32/10 
f 118/32/10 114/25/11 115/20/10 
f 111/22/9 110/21/9 129/48/10 
f 129/48/10 121/35/9 111/22/9 
f 93/2/10 130/49/10 116/26/10 
f 116/26/10 94/3/11 93/2/10 
f 132/1/13 133/2/14 134/3/14 
f 134/3/14 135/4/15 132/1/13 
f 136/5/13 132/1/13 135/4/15 
f 135/4/15 137/6/14 136/5/13 
f 138/7/13 136/5/13 137/6/14 
f 137/6/14 139/8/15 138/7/13 
f 140/9/16 138/7/13 139/8/15 
f 139/8/15 141/10/16 140/9/16 
f 142/11/13 143/12/16 133/2/14 
f 133/2/14 132/1/13 142/11/13 
f 144/14/13 145/13/13 136/5/13 
f 136/5/13 138/7/13 144/14/13 
f 146/15/16 144/14/13 138/7/13 
f 138/7/13 140/9/16 146/15/16 
f 147/16/13 148/17/16 143/12/16 
f 143/12/16 142/11/13 147/16/13 
f 149/18/13 147/16/13 142/11/13 
f 142/11/13 145/13/13 149/18/13 
f 150/19/13 149/18/13 145/13/13 
f 145/13/13 144/14/13 150/19/13 
f 151/20/16 150/19/13 144/14/13 
f 144/14/13 146/15/16 151/20/16 
f 152/21/14 153/22/15 148/17/16 
f 148/17/16 147/16/13 152/21/14 
f 154/24/13 155/23/15 149/18/13 
f 149/18/13 150/19/13 154/24/13 
f 156/25/15 154/24/13 150/19/13 
f 150/19/13 151/20/16 156/25/15 
f 134/3/14 157/26/16 122/27/14 
f 122/27/14 121/28/15 134/3/14 
f 120/29/13 119/30/15 158/31/16 
f 158/31/16 141/10/16 120/29/13 
f 156/25/15 159/32/14 30/33/14 
f 30/33/14 29/34/14 156/25/15 
f 28/35/15 27/36/16 160/37/15 
f 160/37/15 153/22/15 28/35/15 
f 135/4/15 134/3/14 121/28/15 
f 121/28/15 129/38/14 135/4/15 
f 141/10/16 158/31/16 161/39/16 
f 161/39/16 140/9/16 141/10/16 
f 154/24/13 156/25/15 29/34/14 
f 29/34/14 46/40/15 154/24/13 
f 153/22/15 160/37/15 162/41/13 
f 162/41/13 148/17/16 153/22/15 
f 137/6/14 135/4/15 129/38/14 
f 129/38/14 127/42/16 137/6/14 
f 140/9/16 161/39/16 163/43/16 
f 163/43/16 146/15/16 140/9/16 
f 155/23/15 154/24/13 46/40/15 
f 46/40/15 42/44/15 155/23/15 
f 148/17/16 162/41/13 164/45/16 
f 164/45/16 143/12/16 148/17/16 
f 139/8/15 137/6/14 127/42/16 
f 127/42/16 125/46/13 139/8/15 
f 146/15/16 163/43/16 165/47/16 
f 165/47/16 151/20/16 146/15/16 
f 152/21/14 155/23/15 42/44/15 
f 42/44/15 38/48/14 152/21/14 
f 143/12/16 164/45/16 166/49/14 
f 166/49/14 133/2/14 143/12/16 
f 141/10/16 139/8/15 125/46/13 
f 125/46/13 120/29/13 141/10/16 
f 151/20/16 165/47/16 159/32/14 
f 159/32/14 156/25/15 151/20/16 
f 153/22/15 152/21/14 38/48/14 
f 38/48/14 28/35/15 153/22/15 
f 133/2/14 166/49/14 157/26/16 
f 157/26/16 134/3/14 133/2/14 
f 167/19/17 168/20/17 169/25/17 
f 169/25/17 170/24/17 167/19/17 
f 171/18/17 167/19/17 170/24/17 
f 170/24/17 172/23/17 171/18/17 
f 173/16/17 171/18/17 172/23/17 
f 172/23/17 174/21/17 173/16/17 
f 175/17/17 173/16/17 174/21/17 
f 174/21/17 176/22/17 175/17/17 
f 177/14/17 178/15/17 168/20/17 
f 168/20/17 167/19/17 177/14/17 
f 179/13/17 177/14/17 167/19/17 
f 167/19/17 171/18/17 179/13/17 
f 180/11/17 179/13/17 171/18/17 
f 171/18/17 173/16/17 180/11/17 
f 181/12/17 180/11/17 173/16/17 
f 173/16/17 175/17/17 181/12/17 
f 182/7/17 183/9/17 178/15/17 
f 178/15/17 177/14/17 182/7/17 
f 184/5/17 182/7/17 177/14/17 
f 177/14/17 179/13/17 184/5/17 
f 185/1/17 184/5/17 179/13/17 
f 179/13/17 180/11/17 185/1/17 
f 186/2/17 185/1/17 180/11/17 
f 180/11/17 181/12/17 186/2/17 
f 187/8/17 188/10/17 183/9/17 
f 183/9/17 182/7/17 187/8/17 
f 189/6/17 187/8/17 182/7/17 
f 182/7/17 184/5/17 189/6/17 
f 190/4/17 189/6/17 184/5/17 
f 184/5/17 185/1/17 190/4/17 
f 191/3/17 190/4/17 185/1/17 
f 185/1/17 186/2/17 191/3/17 
f 169/25/17 31/32/17 30/33/17 
f 30/33/17 159/34/17 169/25/17 
f 158/35/17 119/36/17 118/37/17 
f 118/37/17 176/22/17 158/35/17 
f 191/3/17 117/26/17 78/27/17 
f 78/27/17 77/28/17 191/3/17 
f 76/29/17 33/30/17 32/31/17 
f 32/31/17 188/10/17 76/29/17 
f 170/24/17 169/25/17 159/34/17 
f 159/34/17 165/40/17 170/24/17 
f 176/22/17 118/37/17 131/41/17 
f 131/41/17 175/17/17 176/22/17 
f 190/4/17 191/3/17 77/28/17 
f 77/28/17 89/38/17 190/4/17 
f 188/10/17 32/31/17 47/39/17 
f 47/39/17 183/9/17 188/10/17 
f 172/23/17 170/24/17 165/40/17 
f 165/40/17 163/44/17 172/23/17 
f 175/17/17 131/41/17 192/45/17 
f 192/45/17 181/12/17 175/17/17 
f 189/6/17 190/4/17 89/38/17 
f 89/38/17 86/42/17 189/6/17 
f 183/9/17 47/39/17 43/43/17 
f 43/43/17 178/15/17 183/9/17 
f 174/21/17 172/23/17 163/44/17 
f 163/44/17 161/48/17 174/21/17 
f 181/12/17 192/45/17 124/49/17 
f 124/49/17 186/2/17 181/12/17 
f 187/8/17 189/6/17 86/42/17 
f 86/42/17 83/46/17 187/8/17 
f 178/15/17 43/43/17 39/47/17 
f 39/47/17 168/20/17 178/15/17 
f 176/22/17 174/21/17 161/48/17 
f 161/48/17 158/35/17 176/22/17 
f 186/2/17 124/49/17 117/26/17 
f 117/26/17 191/3/17 186/2/17 
f 188/10/17 187/8/17 83/46/17 
f 83/46/17 76/29/17 188/10/17 
f 168/20/17 39/47/17 31/32/17 
f 31/32/17 169/25/17 168/20/17 
f 193/1/18 194/2/18 195/3/19 
f 195/3/19 196/4/20 193/1/18 
f 197/5/18 193/1/18 196/4/20 
f 196/4/20 198/6/20 197/5/18 
f 199/7/18 197/5/18 198/6/20 
f 198/6/20 200/8/18 199/7/18 
f 201/9/21 199/7/18 200/8/18 
f 200/8/18 202/10/18 201/9/21 
f 203/11/18 204/12/18 194/2/18 
f 194/2/18 193/1/18 203/11/18 
f 205/13/18 203/11/18 193/1/18 
f 193/1/18 197/5/18 205/13/18 
f 206/14/18 205/13/18 197/5/18 
f 197/5/18 199/7/18 206/14/18 
f 207/15/21 206/14/18 199/7/18 
f 199/7/18 201/9/21 207/15/21 
f 208/16/18 209/17/21 204/12/18 
f 204/12/18 203/11/18 208/16/18 
f 210/18/18 208/16/18 203/11/18 
f 203/11/18 205/13/18 210/18/18 
f 211/19/18 210/18/18 205/13/18 
f 205/13/18 206/14/18 211/19/18 
f 212/20/21 211/19/18 206/14/18 
f 206/14/18 207/15/21 212/20/21 
f 213/21/20 214/22/19 209/17/21 
f 209/17/21 208/16/18 213/21/20 
f 215/23/20 213/21/20 208/16/18 
f 208/16/18 210/18/18 215/23/20 
f 216/24/20 215/23/20 210/18/18 
f 210/18/18 211/19/18 216/24/20 
f 217/25/19 216/24/20 211/19/18 
f 211/19/18 212/20/21 217/25/19 
f 195/3/19 123/26/19 122/27/19 
f 122/27/19 157/28/19 195/3/19 
f 160/29/18 27/30/20 26/31/18 
f 26/31/18 202/10/18 160/29/18 
f 217/25/19 37/32/21 36/33/19 
f 36/33/19 75/34/20 217/25/19 
f 82/35/19 81/36/19 116/37/19 
f 116/37/19 214/22/19 82/35/19 
f 196/4/20 195/3/19 157/28/19 
f 157/28/19 166/38/20 196/4/20 
f 202/10/18 26/31/18 49/39/21 
f 49/39/21 201/9/21 202/10/18 
f 216/24/20 217/25/19 75/34/20 
f 75/34/20 91/40/20 216/24/20 
f 214/22/19 116/37/19 130/41/20 
f 130/41/20 209/17/21 214/22/19 
f 198/6/20 196/4/20 166/38/20 
f 166/38/20 164/42/19 198/6/20 
f 201/9/21 49/39/21 45/43/19 
f 45/43/19 207/15/21 201/9/21 
f 215/23/20 216/24/20 91/40/20 
f 91/40/20 88/44/20 215/23/20 
f 209/17/21 130/41/20 128/45/21 
f 128/45/21 204/12/18 209/17/21 
f 200/8/18 198/6/20 164/42/19 
f 164/42/19 162/46/21 200/8/18 
f 207/15/21 45/43/19 41/47/21 
f 41/47/21 212/20/21 207/15/21 
f 213/21/20 215/23/20 88/44/20 
f 88/44/20 85/48/20 213/21/20 
f 204/12/18 128/45/21 126/49/21 
f 126/49/21 194/2/18 204/12/18 
f 202/10/18 200/8/18 162/46/21 
f 162/46/21 160/29/18 202/10/18 
f 212/20/21 41/47/21 37/32/21 
f 37/32/21 217/25/19 212/20/21 
f 214/22/19 213/21/20 85/48/20 
f 85/48/20 82/35/19 214/22/19 
f 194/2/18 126/49/21 123/26/19 
f 123/26/19 195/3/19 194/2/18 
f 218/33/17 219/36/17 220/27/17 
f 220/27/17 221/30/17 218/33/17 
f 222/30/20 223/33/20 224/36/20 
f 224/36/20 225/27/20 222/30/20 
f 218/30/4 221/33/4 223/36/4 
f 223/36/4 222/27/4 218/30/4 
f 221/30/5 220/33/5 224/36/5 
f 224/36/5 223/27/5 221/30/5 
f 226/30/9 227/33/9 228/36/9 
f 228/36/9 229/27/9 226/30/9 
f 219/30/13 218/33/13 222/36/13 
f 222/36/13 225/27/13 219/30/13 
f 220/27/9 219/36/9 230/33/9 
f 230/33/9 231/30/9 220/27/9 
f 219/30/9 225/27/9 232/36/9 
f 232/36/9 230/33/9 219/30/9 
f 225/27/9 224/36/9 233/27/9 
f 233/27/9 232/36/9 225/27/9 
f 224/36/9 220/33/9 231/30/9 
f 231/30/9 233/27/9 224/36/9 
f 231/30/20 230/33/20 227/33/20 
f 227/33/20 226/30/20 231/30/20 
f 230/33/5 232/36/5 228/36/5 
f 228/36/5 227/33/5 230/33/5 
f 232/36/17 233/27/17 229/27/17 
f 229/27/17 228/36/17 232/36/17 
f 233/27/13 231/30/13 226/30/13 
f 226/30/13 229/27/13 233/27/13 
f 234/33/22 235/30/22 236/27/22 
f 236/27/22 237/36/22 234/33/22 
f 238/30/23 239/27/23 240/36/23 
f 240/36/23 241/33/23 238/30/23 
f 234/30/24 238/27/24 241/36/24 
f 241/36/24 235/33/24 234/30/24 
f 235/30/25 241/27/25 240/36/25 
f 240/36/25 236/33/25 235/30/25 
f 240/27/26 239/36/26 237/33/26 
f 237/33/26 236/30/26 240/27/26 
f 237/30/27 239/27/27 238/36/27 
f 238/36/27 234/33/27 237/30/27 
f 242/33/17 243/36/17 244/27/17 
f 244/27/17 245/30/17 242/33/17 
f 246/30/20 247/33/20 248/36/20 
f 248/36/20 249/27/20 246/30/20 
f 242/30/4 245/33/4 247/36/4 
f 247/36/4 246/27/4 242/30/4 
f 245/30/5 244/33/5 248/36/5 
f 248/36/5 247/27/5 245/30/5 
f 244/30/9 243/33/9 249/36/9 
f 249/36/9 248/27/9 244/30/9 
f 243/30/13 242/33/13 246/36/13 
f 246/36/13 249/27/13 243/30/13 
f 250/33/17 251/36/17 252/27/17 
f 252/27/17 253/30/17 250/33/17 
f 254/30/20 255/33/20 256/36/20 
f 256/36/20 257/27/20 254/30/20 
f 250/30/4 253/33/4 255/36/4 
f 255/36/4 254/27/4 250/30/4 
f 253/30/5 252/33/5 256/36/5 
f 256/36/5 255/27/5 253/30/5 
f 252/30/9 251/33/9 257/36/9 
f 257/36/9 256/27/9 252/30/9 
f 251/30/13 250/33/13 254/36/13 
f 254/36/13 257/27/13 251/30/13 
# 480 faces

