# 3ds Max Wavefront OBJ Exporter v0.97b - (c)2007 guruware
# File Created: 25.02.2013 18:10:16

#
# object Box002
#

v  -0.2849 0.0000 1.9943
v  -0.2849 0.0000 -0.8547
v  1.9943 0.0000 -0.8547
v  1.9943 0.0000 1.9943
v  -0.2849 39.8860 1.9943
v  1.9943 39.8860 1.9943
v  1.9943 39.8860 -0.8547
v  -0.2849 39.8860 -0.8547
v  -12.8876 39.8310 2.6526
v  -12.8876 39.8310 -1.4946
v  17.0805 39.8310 -1.4946
v  17.0805 39.8310 2.6526
v  -12.8876 65.6396 2.6526
v  17.0805 65.6396 2.6526
v  17.0805 65.6396 -1.4946
v  -12.8876 65.6396 -1.4946
# 16 vertices

vn 0.0000 -1.0000 -0.0000
vn 0.0000 1.0000 -0.0000
vn 0.0000 0.0000 1.0000
vn 1.0000 0.0000 -0.0000
vn 0.0000 0.0000 -1.0000
vn -1.0000 0.0000 -0.0000
# 6 vertex normals

vt 1.0000 0.0000 0.0000
vt 1.0000 1.0000 0.0000
vt 0.0000 1.0000 0.0000
vt 0.0000 0.0000 0.0000
# 4 texture coords

g Box002
f 1/1/1 2/2/1 3/3/1 
f 3/3/1 4/4/1 1/1/1 
f 5/4/2 6/1/2 7/2/2 
f 7/2/2 8/3/2 5/4/2 
f 1/4/3 4/1/3 6/2/3 
f 6/2/3 5/3/3 1/4/3 
f 4/4/4 3/1/4 7/2/4 
f 7/2/4 6/3/4 4/4/4 
f 3/4/5 2/1/5 8/2/5 
f 8/2/5 7/3/5 3/4/5 
f 2/4/6 1/1/6 5/2/6 
f 5/2/6 8/3/6 2/4/6 
f 9/1/1 10/2/1 11/3/1 
f 11/3/1 12/4/1 9/1/1 
f 13/4/2 14/1/2 15/2/2 
f 15/2/2 16/3/2 13/4/2 
f 9/4/3 12/1/3 14/2/3 
f 14/2/3 13/3/3 9/4/3 
f 12/4/4 11/1/4 15/2/4 
f 15/2/4 14/3/4 12/4/4 
f 11/4/5 10/1/5 16/2/5 
f 16/2/5 15/3/5 11/4/5 
f 10/4/6 9/1/6 13/2/6 
f 13/2/6 16/3/6 10/4/6 
# 24 faces

