# 3ds Max Wavefront OBJ Exporter v0.97b - (c)2007 guruware
# File Created: 05.04.2013 20:27:20

#
# object Cylinder01
#

v  -23.4530 -0.8681 -3.1288
v  -19.5519 -0.8681 -5.9150
v  -15.6966 -0.8681 -3.0658
v  -17.2150 -0.8681 1.4813
v  -22.0087 -0.8681 1.4423
v  -19.6378 2.2990 -3.2273
v  -18.3235 2.2990 -2.2560
v  -20.9677 2.2990 -2.2775
v  -20.4753 2.2990 -0.7192
v  -18.8412 2.2990 -0.7059
v  -19.3445 73.9797 -2.9416
v  -18.3155 73.2990 -2.1700
v  -20.2415 74.5382 -2.1870
v  -19.9094 74.3314 -0.9490
v  -18.6646 73.5163 -0.9384
v  -16.7395 80.3300 -3.0683
v  -15.9891 79.4403 -2.2081
v  -17.4988 81.2303 -2.2271
v  -17.2177 80.8970 -0.8471
v  -16.2847 79.7907 -0.8354
v  -13.3430 83.4922 -2.9831
v  -13.0565 82.4866 -2.1644
v  -13.6257 84.4844 -2.2183
v  -13.5139 84.0919 -0.9268
v  -13.1621 82.8573 -0.8935
v  3.3161 84.8856 -2.8898
v  3.5888 83.9285 -2.1543
v  3.0401 85.8540 -2.1706
v  3.1423 85.4955 -0.9906
v  3.4814 84.3055 -0.9806
v  -16.7403 26.7959 -2.0378
v  -15.7253 26.7986 -2.0378
v  -16.2328 26.7973 -1.1588
v  -15.7850 27.9527 -2.0378
v  -16.2461 27.9210 -1.1588
v  -16.7071 27.7088 -2.0378
v  -16.3086 29.1569 -2.0378
v  -16.6230 28.7585 -1.1588
v  -16.9374 28.3601 -2.0378
v  -16.9718 29.6981 -2.0378
v  -17.1750 29.2330 -1.1588
v  -17.3781 28.7679 -2.0378
v  -18.9885 29.8866 -2.0378
v  -18.9647 29.3797 -1.1588
v  -18.9409 28.8727 -2.0378
v  -15.5154 26.8167 -0.0084
v  -15.5154 21.1660 -0.0084
v  -15.5154 21.1660 -3.3407
v  -15.5154 26.8167 -3.3407
v  -18.0658 26.8167 -0.0084
v  -18.0658 26.8167 -3.3407
v  -18.0658 21.1660 -3.3407
v  -18.0658 21.1660 -0.0084
v  2.5811 83.6547 -4.0784
v  8.8435 84.3377 -5.3150
v  9.5929 81.5682 -3.9784
v  2.5811 83.6547 -3.3946
v  15.2307 85.0116 -3.4616
v  15.2280 85.0116 -2.5887
v  9.5929 81.5682 -2.1624
v  2.6196 83.6547 -2.1624
v  15.2280 85.0116 -1.6595
v  9.5929 81.5682 -0.3465
v  2.5530 83.8029 -0.5110
v  15.2281 85.0116 -1.0889
v  8.9090 84.3591 1.1394
v  2.5484 83.7903 -0.1276
v  15.2306 85.2024 -0.7037
v  -15.0087 23.3945 -2.2123
v  -15.0087 23.1613 -1.8481
v  -15.0087 24.9823 -0.6820
v  -15.0087 25.2156 -1.0462
v  -14.5762 23.3945 -2.2123
v  -14.5762 25.2156 -1.0462
v  -14.5762 24.9823 -0.6820
v  -14.5762 23.1613 -1.8481
v  -15.0087 25.6805 -2.1699
v  -15.0087 25.1957 -0.3132
v  -15.0087 23.2801 -0.2005
v  -15.0087 24.0645 -3.2047
v  -15.0087 22.5810 -1.9876
v  -15.5030 25.1957 -0.3132
v  -15.5030 23.2801 -0.2005
v  -15.5030 25.6805 -2.1699
v  -15.5030 24.0645 -3.2047
v  -15.5030 22.5810 -1.9876
v  8.9315 84.3569 -5.3081
v  8.9315 84.3569 1.1471
v  2.9555 83.8053 -0.7240
v  2.9555 83.8053 -3.4370
v  15.2312 85.1735 -3.5107
v  15.2312 85.1735 -0.6503
v  8.8308 89.1164 -5.3081
v  2.5509 86.6859 -4.1195
v  2.5509 86.6859 -0.0415
v  8.8308 89.1164 1.1471
v  14.5938 88.5033 -4.1195
v  14.5938 88.5033 -0.0415
# 98 vertices

vn 0.0000 -1.0000 -0.0000
vn 0.0024 0.3974 -0.9176
vn 0.8726 0.4022 -0.2772
vn 0.7204 0.6555 -0.2266
vn 0.0095 0.6472 -0.7623
vn -0.8728 0.3927 -0.2898
vn -0.7297 0.6384 -0.2448
vn -0.5495 0.3942 0.7366
vn -0.4537 0.6417 0.6184
vn 0.5294 0.4002 0.7480
vn 0.4427 0.6522 0.6153
vn -0.1141 -0.0098 -0.9934
vn 0.9260 -0.1517 -0.3458
vn -0.9338 0.2044 -0.2937
vn -0.6369 0.1146 0.7624
vn 0.5324 -0.1077 0.8396
vn -0.0753 0.0350 -0.9965
vn 0.8087 -0.4959 -0.3164
vn -0.7654 0.5722 -0.2945
vn -0.5271 0.3738 0.7632
vn 0.4390 -0.2923 0.8496
vn -0.0511 0.1080 -0.9928
vn 0.4240 -0.8413 -0.3354
vn -0.3598 0.8894 -0.2819
vn -0.2545 0.6159 0.7456
vn 0.2093 -0.4400 0.8733
vn 0.0109 -0.0813 -0.9966
vn 0.0844 -0.9568 -0.2784
vn -0.0755 0.9397 -0.3336
vn -0.0432 0.5501 0.8340
vn 0.0581 -0.6292 0.7751
vn 0.9617 0.2740 -0.0000
vn 0.0027 -1.0000 -0.0000
vn 0.0140 0.0195 0.9997
vn 0.8716 0.0451 -0.4882
vn 0.8594 0.1856 -0.4763
vn 0.1303 0.0316 0.9910
vn -0.8659 0.0092 -0.5001
vn -0.8148 -0.1260 -0.5659
vn 0.6985 0.5510 -0.4567
vn 0.1138 0.0655 0.9913
vn -0.6884 -0.4338 -0.5813
vn 0.3458 0.8291 -0.4394
vn 0.0636 0.1583 0.9853
vn -0.3211 -0.7345 -0.5979
vn 0.0755 0.8803 -0.4683
vn 0.0134 0.0675 0.9976
vn -0.0569 -0.8481 -0.5267
vn -0.9989 -0.0469 -0.0000
vn 1.0000 -0.0000 0.0000
vn 1.0000 0.0000 0.0000
vn -1.0000 -0.0000 -0.0000
vn -1.0000 0.0000 -0.0000
vn -0.0000 -0.0000 1.0000
vn -0.0000 0.0000 1.0000
vn -0.0000 1.0000 0.0000
vn 0.0000 1.0000 -0.0000
vn 0.0000 0.0000 -1.0000
vn -0.2756 -0.9365 -0.2169
vn 0.1126 -0.4424 -0.8897
vn 0.1624 -0.8470 -0.5062
vn -0.2858 -0.9583 0.0040
vn 0.1048 -0.9945 0.0003
vn 0.3974 -0.9086 -0.1287
vn 0.1289 -0.9917 0.0003
vn -0.2940 -0.9551 0.0359
vn 0.5214 -0.8533 -0.0000
vn 0.1245 -0.8690 0.4789
vn -0.1360 -0.9795 0.1483
vn 0.5300 -0.8257 0.1933
vn 0.0474 -0.4764 0.8779
vn 0.0953 -0.9949 -0.0317
vn 0.4832 -0.6976 0.5289
vn -1.0000 -0.0000 0.0000
vn 0.0000 -0.8421 -0.5393
vn -0.0000 -0.5393 0.8421
vn 0.0000 0.8421 0.5393
vn -0.0000 0.8421 0.5393
vn -0.0000 0.5393 -0.8421
vn 0.0000 0.5393 -0.8421
vn 1.0000 -0.0000 -0.0000
vn -0.0000 0.6343 0.7731
vn 0.0000 0.9313 -0.3643
vn 0.0000 -0.0587 -0.9983
vn -0.0000 -0.9676 -0.2526
vn 0.1104 -0.9939 0.0000
vn 0.0919 -0.9958 0.0000
vn 0.1286 -0.9917 -0.0000
vn -0.1337 0.9910 -0.0000
vn -0.3609 0.9326 0.0000
vn -0.3609 0.9326 -0.0000
vn 0.1058 0.9944 0.0000
vn -0.0008 -0.0333 0.9994
vn -0.0894 -0.2415 0.9663
vn -0.1744 -0.1499 0.9732
vn -0.0496 -0.0220 0.9985
vn 0.2552 -0.0721 0.9642
vn 0.2866 -0.1189 0.9506
vn 0.9822 0.1880 0.0000
vn 0.9822 0.1880 -0.0000
vn 0.0506 -0.0234 -0.9984
vn 0.1854 -0.1423 -0.9723
vn 0.2258 -0.0762 -0.9712
vn 0.0197 -0.0370 -0.9991
vn -0.2376 -0.1621 -0.9577
vn -0.2670 -0.2575 -0.9287
vn -0.9903 -0.1391 -0.0000
vn -0.9903 -0.1391 0.0000
# 108 vertex normals

vt 0.1500 0.0000 1.0000
vt -0.0500 0.0000 1.0000
vt 0.5101 0.0000 -0.3820
vt 0.5500 0.0000 1.0000
vt 0.3500 0.0000 1.0000
vt 0.9500 0.2000 1.0000
vt 0.7500 0.2000 1.0000
vt 0.7500 0.0000 1.0000
vt 0.9500 0.0000 1.0000
vt 0.1500 0.2000 1.0000
vt -0.0500 0.2000 1.0000
vt 0.3500 0.2000 1.0000
vt 0.5500 0.2000 1.0000
vt 0.9500 0.4000 1.0000
vt 0.7500 0.4000 1.0000
vt 0.1500 0.4000 1.0000
vt -0.0500 0.4000 1.0000
vt 0.3500 0.4000 1.0000
vt 0.5500 0.4000 1.0000
vt 0.9500 0.6000 1.0000
vt 0.7500 0.6000 1.0000
vt 0.1500 0.6000 1.0000
vt -0.0500 0.6000 1.0000
vt 0.3500 0.6000 1.0000
vt 0.5500 0.6000 1.0000
vt 0.9500 0.8000 1.0000
vt 0.7500 0.8000 1.0000
vt 0.1500 0.8000 1.0000
vt -0.0500 0.8000 1.0000
vt 0.3500 0.8000 1.0000
vt 0.5500 0.8000 1.0000
vt 0.9500 1.0000 1.0000
vt 0.7500 1.0000 1.0000
vt 0.1500 1.0000 1.0000
vt -0.0500 1.0000 1.0000
vt 0.3500 1.0000 1.0000
vt 0.5500 1.0000 1.0000
vt 0.5281 1.0000 -0.3820
vt 0.0674 1.0000 -1.2361
vt 0.4167 0.0000 1.0000
vt 0.0833 0.0000 1.0000
vt -0.2500 0.0000 1.0000
vt 0.0833 0.2500 1.0000
vt -0.2500 0.2500 1.0000
vt 0.4167 0.2500 1.0000
vt 0.7500 0.2500 1.0000
vt 0.0833 0.5000 1.0000
vt -0.2500 0.5000 1.0000
vt 0.4167 0.5000 1.0000
vt 0.7500 0.5000 1.0000
vt 0.0833 0.7500 1.0000
vt -0.2500 0.7500 1.0000
vt 0.4167 0.7500 1.0000
vt 0.7500 0.7500 1.0000
vt 0.0833 1.0000 1.0000
vt -0.2500 1.0000 1.0000
vt 0.4167 1.0000 1.0000
vt 1.6667 1.0000 -2.0000
vt 0.0000 1.0000 0.0000
vt 0.0000 0.0000 0.0000
vt 1.0000 0.0000 0.0000
vt 1.0000 1.0000 0.0000
vt 0.5000 0.0000 0.0000
vt 0.5000 0.2500 0.0000
vt 0.0000 0.2500 0.0000
vt 1.0000 0.2500 0.0000
vt 0.5000 0.5000 0.0000
vt 0.0000 0.5000 0.0000
vt 1.0000 0.5000 0.0000
vt 0.5000 0.7500 0.0000
vt 0.0000 0.7500 0.0000
vt 1.0000 0.7500 0.0000
vt 0.5000 1.0000 0.0000
vt 0.5281 0.0000 -0.3820
vt 0.0674 0.0000 -1.2361
vt 0.2045 0.0000 -0.3820
# 76 texture coords

g Cylinder01
f 1/1/1 2/2/1 3/3/1 
f 3/3/1 4/4/1 5/5/1 
f 1/1/1 3/3/1 5/5/1 
f 6/6/2 7/7/3 3/8/4 
f 3/8/4 2/9/5 6/6/2 
f 8/10/6 6/11/2 2/2/5 
f 2/2/5 1/1/7 8/10/6 
f 9/12/8 8/10/6 1/1/7 
f 1/1/7 5/5/9 9/12/8 
f 10/13/10 9/12/8 5/5/9 
f 5/5/9 4/4/11 10/13/10 
f 7/7/3 10/13/10 4/4/11 
f 4/4/11 3/8/4 7/7/3 
f 11/14/12 12/15/13 7/7/3 
f 7/7/3 6/6/2 11/14/12 
f 13/16/14 11/17/12 6/11/2 
f 6/11/2 8/10/6 13/16/14 
f 14/18/15 13/16/14 8/10/6 
f 8/10/6 9/12/8 14/18/15 
f 15/19/16 14/18/15 9/12/8 
f 9/12/8 10/13/10 15/19/16 
f 12/15/13 15/19/16 10/13/10 
f 10/13/10 7/7/3 12/15/13 
f 16/20/17 17/21/18 12/15/13 
f 12/15/13 11/14/12 16/20/17 
f 18/22/19 16/23/17 11/17/12 
f 11/17/12 13/16/14 18/22/19 
f 19/24/20 18/22/19 13/16/14 
f 13/16/14 14/18/15 19/24/20 
f 20/25/21 19/24/20 14/18/15 
f 14/18/15 15/19/16 20/25/21 
f 17/21/18 20/25/21 15/19/16 
f 15/19/16 12/15/13 17/21/18 
f 21/26/22 22/27/23 17/21/18 
f 17/21/18 16/20/17 21/26/22 
f 23/28/24 21/29/22 16/23/17 
f 16/23/17 18/22/19 23/28/24 
f 24/30/25 23/28/24 18/22/19 
f 18/22/19 19/24/20 24/30/25 
f 25/31/26 24/30/25 19/24/20 
f 19/24/20 20/25/21 25/31/26 
f 22/27/23 25/31/26 20/25/21 
f 20/25/21 17/21/18 22/27/23 
f 26/32/27 27/33/28 22/27/23 
f 22/27/23 21/26/22 26/32/27 
f 28/34/29 26/35/27 21/29/22 
f 21/29/22 23/28/24 28/34/29 
f 29/36/30 28/34/29 23/28/24 
f 23/28/24 24/30/25 29/36/30 
f 30/37/31 29/36/30 24/30/25 
f 24/30/25 25/31/26 30/37/31 
f 27/33/28 30/37/31 25/31/26 
f 25/31/26 22/27/23 27/33/28 
f 26/32/32 28/38/32 29/39/32 
f 29/39/32 30/37/32 27/33/32 
f 26/32/32 29/39/32 27/33/32 
f 31/40/33 32/41/33 33/42/33 
f 33/42/34 32/41/35 34/43/36 
f 34/43/36 35/44/37 33/42/34 
f 32/41/35 31/40/38 36/45/39 
f 36/45/39 34/43/36 32/41/35 
f 31/40/38 33/8/34 35/46/37 
f 35/46/37 36/45/39 31/40/38 
f 35/44/37 34/43/36 37/47/40 
f 37/47/40 38/48/41 35/44/37 
f 34/43/36 36/45/39 39/49/42 
f 39/49/42 37/47/40 34/43/36 
f 36/45/39 35/46/37 38/50/41 
f 38/50/41 39/49/42 36/45/39 
f 38/48/41 37/47/40 40/51/43 
f 40/51/43 41/52/44 38/48/41 
f 37/47/40 39/49/42 42/53/45 
f 42/53/45 40/51/43 37/47/40 
f 39/49/42 38/50/41 41/54/44 
f 41/54/44 42/53/45 39/49/42 
f 41/52/44 40/51/43 43/55/46 
f 43/55/46 44/56/47 41/52/44 
f 40/51/43 42/53/45 45/57/48 
f 45/57/48 43/55/46 40/51/43 
f 42/53/45 41/54/44 44/33/47 
f 44/33/47 45/57/48 42/53/45 
f 45/58/49 44/56/49 43/55/49 
f 46/59/50 47/60/51 48/61/50 
f 48/61/50 49/62/50 46/59/50 
f 50/62/52 51/59/53 52/60/52 
f 52/60/52 53/61/52 50/62/52 
f 53/62/1 52/59/1 48/60/1 
f 48/60/1 47/61/1 53/62/1 
f 50/62/54 53/59/54 47/60/54 
f 47/60/54 46/61/55 50/62/54 
f 51/62/56 50/59/56 46/60/56 
f 46/60/56 49/61/57 51/62/56 
f 52/62/58 51/59/58 49/60/58 
f 49/60/58 48/61/58 52/62/58 
f 54/60/59 55/63/60 56/64/61 
f 56/64/61 57/65/62 54/60/59 
f 55/63/60 58/61/63 59/66/64 
f 59/66/64 56/64/61 55/63/60 
f 57/65/62 56/64/61 60/67/65 
f 60/67/65 61/68/66 57/65/62 
f 56/64/61 59/66/64 62/69/67 
f 62/69/67 60/67/65 56/64/61 
f 61/68/66 60/67/65 63/70/68 
f 63/70/68 64/71/69 61/68/66 
f 60/67/65 62/69/67 65/72/70 
f 65/72/70 63/70/68 60/67/65 
f 64/71/69 63/70/68 66/73/71 
f 66/73/71 67/59/72 64/71/69 
f 63/70/68 65/72/70 68/62/73 
f 68/62/73 66/73/71 63/70/68 
f 69/60/74 70/61/74 71/62/74 
f 71/62/74 72/59/74 69/60/74 
f 73/61/50 74/62/50 75/59/50 
f 75/59/50 76/60/50 73/61/50 
f 69/60/75 73/59/75 76/62/75 
f 76/62/75 70/61/75 69/60/75 
f 70/60/76 76/59/76 75/62/76 
f 75/62/76 71/61/76 70/60/76 
f 71/60/77 75/59/78 74/62/77 
f 74/62/77 72/61/77 71/60/77 
f 72/60/79 74/59/79 73/62/80 
f 73/62/80 69/61/80 72/60/79 
f 77/74/50 78/9/81 79/8/51 
f 80/75/51 77/74/50 79/8/51 
f 81/76/51 80/75/51 79/8/51 
f 79/8/76 78/9/82 82/32/82 
f 82/32/82 83/33/76 79/8/76 
f 78/2/82 77/1/83 84/34/83 
f 84/34/83 82/35/82 78/2/82 
f 77/1/83 80/5/84 85/36/84 
f 85/36/84 84/34/83 77/1/83 
f 80/5/84 81/4/85 86/37/85 
f 86/37/85 85/36/84 80/5/84 
f 81/4/85 79/8/76 83/33/76 
f 83/33/76 86/37/85 81/4/85 
f 82/32/52 84/38/53 85/39/53 
f 83/33/52 82/32/52 85/39/53 
f 86/37/53 83/33/52 85/39/53 
f 87/73/86 88/63/86 89/61/87 
f 89/61/87 90/62/87 87/73/86 
f 91/59/88 92/60/88 88/63/86 
f 88/63/86 87/73/86 91/59/88 
f 93/73/89 94/59/90 95/60/91 
f 95/60/91 96/63/89 93/73/89 
f 97/62/92 93/73/89 96/63/89 
f 96/63/89 98/61/92 97/62/92 
f 96/73/93 95/59/94 89/60/95 
f 89/60/95 88/63/96 96/73/93 
f 98/62/97 96/73/93 88/63/96 
f 88/63/96 92/61/98 98/62/97 
f 97/62/99 98/59/99 92/60/99 
f 92/60/99 91/61/100 97/62/99 
f 93/73/101 97/59/102 91/60/103 
f 91/60/103 87/63/104 93/73/101 
f 94/62/105 93/73/101 87/63/104 
f 87/63/104 90/61/106 94/62/105 
f 95/62/107 94/59/108 90/60/107 
f 90/60/107 89/61/107 95/62/107 
# 158 faces

