# 3ds Max Wavefront OBJ Exporter v0.97b - (c)2007 guruware
# File Created: 25.02.2013 17:42:42

#
# object Cylinder001
#

v  22.5299 0.0000 -0.3124
v  21.2279 0.0000 -7.6966
v  21.2279 2.0542 -7.6966
v  22.5299 2.0542 -0.3124
v  17.4788 0.0000 -14.1902
v  17.4788 2.0542 -14.1902
v  11.7349 0.0000 -19.0099
v  11.7349 2.0542 -19.0099
v  4.6890 0.0000 -21.5744
v  4.6890 2.0542 -21.5744
v  -2.8091 0.0000 -21.5744
v  -2.8091 2.0542 -21.5744
v  -9.8550 0.0000 -19.0099
v  -9.8550 2.0542 -19.0099
v  -15.5989 0.0000 -14.1902
v  -15.5989 2.0542 -14.1902
v  -19.3480 0.0000 -7.6966
v  -19.3480 2.0542 -7.6966
v  -20.6500 0.0000 -0.3124
v  -20.6500 2.0542 -0.3124
v  -19.3480 0.0000 7.0718
v  -19.3480 2.0542 7.0718
v  -15.5989 0.0000 13.5653
v  -15.5989 2.0542 13.5653
v  -9.8550 0.0000 18.3850
v  -9.8550 2.0542 18.3850
v  -2.8091 0.0000 20.9495
v  -2.8091 2.0542 20.9495
v  4.6890 0.0000 20.9495
v  4.6890 2.0542 20.9495
v  11.7349 0.0000 18.3850
v  11.7349 2.0542 18.3850
v  17.4788 0.0000 13.5654
v  17.4788 2.0542 13.5654
v  21.2279 0.0000 7.0718
v  21.2279 2.0542 7.0718
v  21.2279 4.1084 -7.6966
v  22.5299 4.1084 -0.3124
v  17.4788 4.1084 -14.1902
v  11.7349 4.1084 -19.0099
v  4.6890 4.1084 -21.5744
v  -2.8091 4.1084 -21.5744
v  -9.8550 4.1084 -19.0099
v  -15.5989 4.1084 -14.1902
v  -19.3480 4.1084 -7.6966
v  -20.6500 4.1084 -0.3124
v  -19.3480 4.1084 7.0718
v  -15.5989 4.1084 13.5653
v  -9.8550 4.1084 18.3850
v  -2.8091 4.1084 20.9495
v  4.6890 4.1084 20.9495
v  11.7349 4.1084 18.3850
v  17.4788 4.1084 13.5654
v  21.2279 4.1084 7.0718
v  21.2279 6.1627 -7.6966
v  22.5299 6.1627 -0.3124
v  17.4788 6.1627 -14.1902
v  11.7349 6.1627 -19.0099
v  4.6890 6.1627 -21.5744
v  -2.8091 6.1627 -21.5744
v  -9.8550 6.1627 -19.0099
v  -15.5989 6.1627 -14.1902
v  -19.3480 6.1627 -7.6966
v  -20.6500 6.1627 -0.3124
v  -19.3480 6.1627 7.0718
v  -15.5989 6.1627 13.5653
v  -9.8550 6.1627 18.3850
v  -2.8091 6.1627 20.9495
v  4.6890 6.1627 20.9495
v  11.7349 6.1627 18.3850
v  17.4788 6.1627 13.5654
v  21.2279 6.1627 7.0718
v  21.2279 8.2169 -7.6966
v  22.5299 8.2169 -0.3124
v  17.4788 8.2169 -14.1902
v  11.7349 8.2169 -19.0099
v  4.6890 8.2169 -21.5744
v  -2.8091 8.2169 -21.5744
v  -9.8550 8.2169 -19.0099
v  -15.5989 8.2169 -14.1902
v  -19.3480 8.2169 -7.6966
v  -20.6500 8.2169 -0.3124
v  -19.3480 8.2169 7.0718
v  -15.5989 8.2169 13.5653
v  -9.8550 8.2169 18.3850
v  -2.8091 8.2169 20.9495
v  4.6890 8.2169 20.9495
v  11.7349 8.2169 18.3850
v  17.4788 8.2169 13.5654
v  21.2279 8.2169 7.0718
v  21.2279 10.2711 -7.6966
v  22.5299 10.2711 -0.3124
v  17.4788 10.2711 -14.1902
v  11.7349 10.2711 -19.0099
v  4.6890 10.2711 -21.5744
v  -2.8091 10.2711 -21.5744
v  -9.8550 10.2711 -19.0099
v  -15.5989 10.2711 -14.1902
v  -19.3480 10.2711 -7.6966
v  -20.6500 10.2711 -0.3124
v  -19.3480 10.2711 7.0718
v  -15.5989 10.2711 13.5653
v  -9.8550 10.2711 18.3850
v  -2.8091 10.2711 20.9495
v  4.6890 10.2711 20.9495
v  11.7349 10.2711 18.3850
v  17.4788 10.2711 13.5654
v  21.2279 10.2711 7.0718
v  21.4773 0.8304 -7.7874
v  17.6821 0.8304 -14.3608
v  11.8676 0.8304 -19.2397
v  4.7351 0.8304 -21.8358
v  -2.8552 0.8304 -21.8358
v  -9.9878 0.8304 -19.2397
v  -15.8023 0.8304 -14.3608
v  -19.5974 0.8304 -7.7874
v  -20.9154 0.8304 -0.3124
v  -19.5974 0.8304 7.1626
v  -15.8023 0.8304 13.7360
v  -9.9878 0.8304 18.6149
v  -2.8552 0.8304 21.2109
v  4.7351 0.8304 21.2109
v  11.8676 0.8304 18.6149
v  17.6821 0.8304 13.7360
v  21.4773 0.8304 7.1626
v  22.7953 0.8304 -0.3124
v  18.0992 10.2711 -6.5579
v  19.2004 10.2711 -0.3124
v  14.9283 10.2711 -12.0500
v  10.0702 10.2711 -16.1265
v  4.1108 10.2711 -18.2955
v  -2.2310 10.2711 -18.2955
v  -8.1903 10.2711 -16.1265
v  -13.0484 10.2711 -12.0500
v  -16.2193 10.2711 -6.5579
v  -17.3205 10.2711 -0.3124
v  -16.2193 10.2711 5.9330
v  -13.0484 10.2711 11.4252
v  -8.1903 10.2711 15.5016
v  -2.2310 10.2711 17.6707
v  4.1108 10.2711 17.6707
v  10.0702 10.2711 15.5016
v  14.9283 10.2711 11.4252
v  18.0992 10.2711 5.9331
v  21.4773 3.6626 -7.7874
v  22.7953 3.6626 -0.3124
v  17.6821 3.6626 -14.3608
v  11.8676 3.6626 -19.2397
v  4.7351 3.6626 -21.8358
v  -2.8552 3.6626 -21.8358
v  -9.9878 3.6626 -19.2397
v  -15.8023 3.6626 -14.3608
v  -19.5974 3.6626 -7.7874
v  -20.9154 3.6626 -0.3124
v  -19.5974 3.6626 7.1626
v  -15.8023 3.6626 13.7360
v  -9.9878 3.6626 18.6149
v  -2.8552 3.6626 21.2109
v  4.7351 3.6626 21.2109
v  11.8676 3.6626 18.6149
v  17.6821 3.6626 13.7360
v  21.4773 3.6626 7.1626
# 162 vertices

vn 1.0000 0.0000 0.0000
vn 0.9397 0.0000 -0.3420
vn 0.7660 0.0000 -0.6428
vn 0.5000 0.0000 -0.8660
vn 0.1736 0.0000 -0.9848
vn -0.1736 0.0000 -0.9848
vn -0.5000 0.0000 -0.8660
vn -0.7660 0.0000 -0.6428
vn -0.9397 0.0000 -0.3420
vn -1.0000 0.0000 -0.0000
vn -0.9397 0.0000 0.3420
vn -0.7660 0.0000 0.6428
vn -0.5000 0.0000 0.8660
vn -0.1736 0.0000 0.9848
vn 0.1736 0.0000 0.9848
vn 0.5000 0.0000 0.8660
vn 0.7660 0.0000 0.6428
vn 0.9397 0.0000 0.3420
vn 0.0000 -1.0000 -0.0000
vn 0.0000 1.0000 -0.0000
vn -0.8681 -0.4722 0.1531
vn -0.7634 -0.4722 0.4407
vn -0.5666 -0.4722 0.6753
vn -0.3015 -0.4722 0.8283
vn 0.0000 -0.4722 0.8815
vn 0.3015 -0.4722 0.8283
vn 0.5666 -0.4722 0.6753
vn 0.7634 -0.4722 0.4407
vn 0.8681 -0.4722 0.1531
vn 0.8681 -0.4722 -0.1531
vn 0.7634 -0.4722 -0.4407
vn 0.5666 -0.4722 -0.6753
vn 0.3015 -0.4722 -0.8283
vn 0.0000 -0.4722 -0.8815
vn -0.3015 -0.4722 -0.8283
vn -0.5666 -0.4722 -0.6753
vn -0.7634 -0.4722 -0.4407
vn -0.8681 -0.4722 -0.1531
vn -0.9848 0.0000 0.1736
vn -0.8660 0.0000 0.5000
vn -0.6428 0.0000 0.7660
vn -0.3420 0.0000 0.9397
vn 0.0000 0.0000 1.0000
vn 0.3420 0.0000 0.9397
vn 0.6428 0.0000 0.7660
vn 0.8660 0.0000 0.5000
vn 0.9848 0.0000 0.1736
vn 0.9848 0.0000 -0.1736
vn 0.8660 0.0000 -0.5000
vn 0.6428 0.0000 -0.7660
vn 0.3420 0.0000 -0.9397
vn 0.0000 0.0000 -1.0000
vn -0.3420 0.0000 -0.9397
vn -0.6428 0.0000 -0.7660
vn -0.8660 0.0000 -0.5000
vn -0.9848 0.0000 -0.1736
# 56 vertex normals

vt 0.7500 0.0000 1.0000
vt 0.8056 0.0000 1.0000
vt 0.8056 0.2000 1.0000
vt 0.7500 0.2000 1.0000
vt 0.8611 0.0000 1.0000
vt 0.8611 0.2000 1.0000
vt 0.9167 0.0000 1.0000
vt 0.9167 0.2000 1.0000
vt 0.9722 0.0000 1.0000
vt 0.9722 0.2000 1.0000
vt 1.0278 0.0000 1.0000
vt 1.0278 0.2000 1.0000
vt 0.0278 0.0000 1.0000
vt 0.0833 0.0000 1.0000
vt 0.0833 0.2000 1.0000
vt 0.0278 0.2000 1.0000
vt 0.1389 0.0000 1.0000
vt 0.1389 0.2000 1.0000
vt 0.1944 0.0000 1.0000
vt 0.1944 0.2000 1.0000
vt 0.2500 0.0000 1.0000
vt 0.2500 0.2000 1.0000
vt 0.3056 0.0000 1.0000
vt 0.3056 0.2000 1.0000
vt 0.3611 0.0000 1.0000
vt 0.3611 0.2000 1.0000
vt 0.4167 0.0000 1.0000
vt 0.4167 0.2000 1.0000
vt 0.4722 0.0000 1.0000
vt 0.4722 0.2000 1.0000
vt 0.5278 0.0000 1.0000
vt 0.5278 0.2000 1.0000
vt 0.5833 0.0000 1.0000
vt 0.5833 0.2000 1.0000
vt 0.6389 0.0000 1.0000
vt 0.6389 0.2000 1.0000
vt 0.6944 0.0000 1.0000
vt 0.6944 0.2000 1.0000
vt 0.8056 0.4000 1.0000
vt 0.7500 0.4000 1.0000
vt 0.8611 0.4000 1.0000
vt 0.9167 0.4000 1.0000
vt 0.9722 0.4000 1.0000
vt 1.0278 0.4000 1.0000
vt 0.0833 0.4000 1.0000
vt 0.0278 0.4000 1.0000
vt 0.1389 0.4000 1.0000
vt 0.1944 0.4000 1.0000
vt 0.2500 0.4000 1.0000
vt 0.3056 0.4000 1.0000
vt 0.3611 0.4000 1.0000
vt 0.4167 0.4000 1.0000
vt 0.4722 0.4000 1.0000
vt 0.5278 0.4000 1.0000
vt 0.5833 0.4000 1.0000
vt 0.6389 0.4000 1.0000
vt 0.6944 0.4000 1.0000
vt 0.8056 0.6000 1.0000
vt 0.7500 0.6000 1.0000
vt 0.8611 0.6000 1.0000
vt 0.9167 0.6000 1.0000
vt 0.9722 0.6000 1.0000
vt 1.0278 0.6000 1.0000
vt 0.0833 0.6000 1.0000
vt 0.0278 0.6000 1.0000
vt 0.1389 0.6000 1.0000
vt 0.1944 0.6000 1.0000
vt 0.2500 0.6000 1.0000
vt 0.3056 0.6000 1.0000
vt 0.3611 0.6000 1.0000
vt 0.4167 0.6000 1.0000
vt 0.4722 0.6000 1.0000
vt 0.5278 0.6000 1.0000
vt 0.5833 0.6000 1.0000
vt 0.6389 0.6000 1.0000
vt 0.6944 0.6000 1.0000
vt 0.8056 0.8000 1.0000
vt 0.7500 0.8000 1.0000
vt 0.8611 0.8000 1.0000
vt 0.9167 0.8000 1.0000
vt 0.9722 0.8000 1.0000
vt 1.0278 0.8000 1.0000
vt 0.0833 0.8000 1.0000
vt 0.0278 0.8000 1.0000
vt 0.1389 0.8000 1.0000
vt 0.1944 0.8000 1.0000
vt 0.2500 0.8000 1.0000
vt 0.3056 0.8000 1.0000
vt 0.3611 0.8000 1.0000
vt 0.4167 0.8000 1.0000
vt 0.4722 0.8000 1.0000
vt 0.5278 0.8000 1.0000
vt 0.5833 0.8000 1.0000
vt 0.6389 0.8000 1.0000
vt 0.6944 0.8000 1.0000
vt 0.8056 1.0000 1.0000
vt 0.7500 1.0000 1.0000
vt 0.8611 1.0000 1.0000
vt 0.9167 1.0000 1.0000
vt 0.9722 1.0000 1.0000
vt 1.0278 1.0000 1.0000
vt 0.0833 1.0000 1.0000
vt 0.0278 1.0000 1.0000
vt 0.1389 1.0000 1.0000
vt 0.1944 1.0000 1.0000
vt 0.2500 1.0000 1.0000
vt 0.3056 1.0000 1.0000
vt 0.3611 1.0000 1.0000
vt 0.4167 1.0000 1.0000
vt 0.4722 1.0000 1.0000
vt 0.5278 1.0000 1.0000
vt 0.5833 1.0000 1.0000
vt 0.6389 1.0000 1.0000
vt 0.6944 1.0000 1.0000
vt 0.8214 0.8830 -0.2500
vt 0.9330 0.7500 -0.2500
vt 0.9924 0.5868 -0.2500
vt 0.9924 0.4132 -0.2500
vt 0.9330 0.2500 -0.2500
vt 0.8214 0.1170 -0.2500
vt 0.6710 0.0302 -0.2500
vt 0.5000 0.0000 -0.2500
vt 0.3290 0.0302 -0.2500
vt 0.1786 0.1170 -0.2500
vt 0.0670 0.2500 -0.2500
vt 0.0076 0.4132 -0.2500
vt 0.0076 0.5868 -0.2500
vt 0.0670 0.7500 -0.2500
vt 0.1786 0.8830 -0.2500
vt 0.3290 0.9698 -0.2500
vt 0.5000 1.0000 -0.2500
vt 0.6710 0.9698 -0.2500
vt 0.3290 0.9698 0.2500
vt 0.1786 0.8830 0.2500
vt 0.0670 0.7500 0.2500
vt 0.0076 0.5868 0.2500
vt 0.0076 0.4132 0.2500
vt 0.0670 0.2500 0.2500
vt 0.1786 0.1170 0.2500
vt 0.3290 0.0302 0.2500
vt 0.5000 0.0000 0.2500
vt 0.6710 0.0302 0.2500
vt 0.8214 0.1170 0.2500
vt 0.9330 0.2500 0.2500
vt 0.9924 0.4132 0.2500
vt 0.9924 0.5868 0.2500
vt 0.9330 0.7500 0.2500
vt 0.8214 0.8830 0.2500
vt 0.6710 0.9698 0.2500
vt 0.5000 1.0000 0.2500
# 150 texture coords

g Cylinder001
f 1/1/1 2/2/2 3/3/2 
f 3/3/2 4/4/1 1/1/1 
f 2/2/2 5/5/3 6/6/3 
f 6/6/3 3/3/2 2/2/2 
f 5/5/3 7/7/4 8/8/4 
f 8/8/4 6/6/3 5/5/3 
f 7/7/4 9/9/5 10/10/5 
f 10/10/5 8/8/4 7/7/4 
f 9/9/5 11/11/6 12/12/6 
f 12/12/6 10/10/5 9/9/5 
f 11/13/6 13/14/7 14/15/7 
f 14/15/7 12/16/6 11/13/6 
f 13/14/7 15/17/8 16/18/8 
f 16/18/8 14/15/7 13/14/7 
f 15/17/8 17/19/9 18/20/9 
f 18/20/9 16/18/8 15/17/8 
f 17/19/9 19/21/10 20/22/10 
f 20/22/10 18/20/9 17/19/9 
f 19/21/10 21/23/11 22/24/11 
f 22/24/11 20/22/10 19/21/10 
f 21/23/11 23/25/12 24/26/12 
f 24/26/12 22/24/11 21/23/11 
f 23/25/12 25/27/13 26/28/13 
f 26/28/13 24/26/12 23/25/12 
f 25/27/13 27/29/14 28/30/14 
f 28/30/14 26/28/13 25/27/13 
f 27/29/14 29/31/15 30/32/15 
f 30/32/15 28/30/14 27/29/14 
f 29/31/15 31/33/16 32/34/16 
f 32/34/16 30/32/15 29/31/15 
f 31/33/16 33/35/17 34/36/17 
f 34/36/17 32/34/16 31/33/16 
f 33/35/17 35/37/18 36/38/18 
f 36/38/18 34/36/17 33/35/17 
f 35/37/18 1/1/1 4/4/1 
f 4/4/1 36/38/18 35/37/18 
f 4/4/1 3/3/2 37/39/2 
f 37/39/2 38/40/1 4/4/1 
f 3/3/2 6/6/3 39/41/3 
f 39/41/3 37/39/2 3/3/2 
f 6/6/3 8/8/4 40/42/4 
f 40/42/4 39/41/3 6/6/3 
f 8/8/4 10/10/5 41/43/5 
f 41/43/5 40/42/4 8/8/4 
f 10/10/5 12/12/6 42/44/6 
f 42/44/6 41/43/5 10/10/5 
f 12/16/6 14/15/7 43/45/7 
f 43/45/7 42/46/6 12/16/6 
f 14/15/7 16/18/8 44/47/8 
f 44/47/8 43/45/7 14/15/7 
f 16/18/8 18/20/9 45/48/9 
f 45/48/9 44/47/8 16/18/8 
f 18/20/9 20/22/10 46/49/10 
f 46/49/10 45/48/9 18/20/9 
f 20/22/10 22/24/11 47/50/11 
f 47/50/11 46/49/10 20/22/10 
f 22/24/11 24/26/12 48/51/12 
f 48/51/12 47/50/11 22/24/11 
f 24/26/12 26/28/13 49/52/13 
f 49/52/13 48/51/12 24/26/12 
f 26/28/13 28/30/14 50/53/14 
f 50/53/14 49/52/13 26/28/13 
f 28/30/14 30/32/15 51/54/15 
f 51/54/15 50/53/14 28/30/14 
f 30/32/15 32/34/16 52/55/16 
f 52/55/16 51/54/15 30/32/15 
f 32/34/16 34/36/17 53/56/17 
f 53/56/17 52/55/16 32/34/16 
f 34/36/17 36/38/18 54/57/18 
f 54/57/18 53/56/17 34/36/17 
f 36/38/18 4/4/1 38/40/1 
f 38/40/1 54/57/18 36/38/18 
f 38/40/1 37/39/2 55/58/2 
f 55/58/2 56/59/1 38/40/1 
f 37/39/2 39/41/3 57/60/3 
f 57/60/3 55/58/2 37/39/2 
f 39/41/3 40/42/4 58/61/4 
f 58/61/4 57/60/3 39/41/3 
f 40/42/4 41/43/5 59/62/5 
f 59/62/5 58/61/4 40/42/4 
f 41/43/5 42/44/6 60/63/6 
f 60/63/6 59/62/5 41/43/5 
f 42/46/6 43/45/7 61/64/7 
f 61/64/7 60/65/6 42/46/6 
f 43/45/7 44/47/8 62/66/8 
f 62/66/8 61/64/7 43/45/7 
f 44/47/8 45/48/9 63/67/9 
f 63/67/9 62/66/8 44/47/8 
f 45/48/9 46/49/10 64/68/10 
f 64/68/10 63/67/9 45/48/9 
f 46/49/10 47/50/11 65/69/11 
f 65/69/11 64/68/10 46/49/10 
f 47/50/11 48/51/12 66/70/12 
f 66/70/12 65/69/11 47/50/11 
f 48/51/12 49/52/13 67/71/13 
f 67/71/13 66/70/12 48/51/12 
f 49/52/13 50/53/14 68/72/14 
f 68/72/14 67/71/13 49/52/13 
f 50/53/14 51/54/15 69/73/15 
f 69/73/15 68/72/14 50/53/14 
f 51/54/15 52/55/16 70/74/16 
f 70/74/16 69/73/15 51/54/15 
f 52/55/16 53/56/17 71/75/17 
f 71/75/17 70/74/16 52/55/16 
f 53/56/17 54/57/18 72/76/18 
f 72/76/18 71/75/17 53/56/17 
f 54/57/18 38/40/1 56/59/1 
f 56/59/1 72/76/18 54/57/18 
f 56/59/1 55/58/2 73/77/2 
f 73/77/2 74/78/1 56/59/1 
f 55/58/2 57/60/3 75/79/3 
f 75/79/3 73/77/2 55/58/2 
f 57/60/3 58/61/4 76/80/4 
f 76/80/4 75/79/3 57/60/3 
f 58/61/4 59/62/5 77/81/5 
f 77/81/5 76/80/4 58/61/4 
f 59/62/5 60/63/6 78/82/6 
f 78/82/6 77/81/5 59/62/5 
f 60/65/6 61/64/7 79/83/7 
f 79/83/7 78/84/6 60/65/6 
f 61/64/7 62/66/8 80/85/8 
f 80/85/8 79/83/7 61/64/7 
f 62/66/8 63/67/9 81/86/9 
f 81/86/9 80/85/8 62/66/8 
f 63/67/9 64/68/10 82/87/10 
f 82/87/10 81/86/9 63/67/9 
f 64/68/10 65/69/11 83/88/11 
f 83/88/11 82/87/10 64/68/10 
f 65/69/11 66/70/12 84/89/12 
f 84/89/12 83/88/11 65/69/11 
f 66/70/12 67/71/13 85/90/13 
f 85/90/13 84/89/12 66/70/12 
f 67/71/13 68/72/14 86/91/14 
f 86/91/14 85/90/13 67/71/13 
f 68/72/14 69/73/15 87/92/15 
f 87/92/15 86/91/14 68/72/14 
f 69/73/15 70/74/16 88/93/16 
f 88/93/16 87/92/15 69/73/15 
f 70/74/16 71/75/17 89/94/17 
f 89/94/17 88/93/16 70/74/16 
f 71/75/17 72/76/18 90/95/18 
f 90/95/18 89/94/17 71/75/17 
f 72/76/18 56/59/1 74/78/1 
f 74/78/1 90/95/18 72/76/18 
f 74/78/1 73/77/2 91/96/2 
f 91/96/2 92/97/1 74/78/1 
f 73/77/2 75/79/3 93/98/3 
f 93/98/3 91/96/2 73/77/2 
f 75/79/3 76/80/4 94/99/4 
f 94/99/4 93/98/3 75/79/3 
f 76/80/4 77/81/5 95/100/5 
f 95/100/5 94/99/4 76/80/4 
f 77/81/5 78/82/6 96/101/6 
f 96/101/6 95/100/5 77/81/5 
f 78/84/6 79/83/7 97/102/7 
f 97/102/7 96/103/6 78/84/6 
f 79/83/7 80/85/8 98/104/8 
f 98/104/8 97/102/7 79/83/7 
f 80/85/8 81/86/9 99/105/9 
f 99/105/9 98/104/8 80/85/8 
f 81/86/9 82/87/10 100/106/10 
f 100/106/10 99/105/9 81/86/9 
f 82/87/10 83/88/11 101/107/11 
f 101/107/11 100/106/10 82/87/10 
f 83/88/11 84/89/12 102/108/12 
f 102/108/12 101/107/11 83/88/11 
f 84/89/12 85/90/13 103/109/13 
f 103/109/13 102/108/12 84/89/12 
f 85/90/13 86/91/14 104/110/14 
f 104/110/14 103/109/13 85/90/13 
f 86/91/14 87/92/15 105/111/15 
f 105/111/15 104/110/14 86/91/14 
f 87/92/15 88/93/16 106/112/16 
f 106/112/16 105/111/15 87/92/15 
f 88/93/16 89/94/17 107/113/17 
f 107/113/17 106/112/16 88/93/16 
f 89/94/17 90/95/18 108/114/18 
f 108/114/18 107/113/17 89/94/17 
f 90/95/18 74/78/1 92/97/1 
f 92/97/1 108/114/18 90/95/18 
f 33/115/19 31/116/19 29/117/19 
f 29/117/19 27/118/19 25/119/19 
f 25/119/19 23/120/19 21/121/19 
f 29/117/19 25/119/19 21/121/19 
f 21/121/19 19/122/19 17/123/19 
f 17/123/19 15/124/19 13/125/19 
f 21/121/19 17/123/19 13/125/19 
f 13/125/19 11/126/19 9/127/19 
f 9/127/19 7/128/19 5/129/19 
f 13/125/19 9/127/19 5/129/19 
f 21/121/19 13/125/19 5/129/19 
f 29/117/19 21/121/19 5/129/19 
f 5/129/19 2/130/19 1/131/19 
f 29/117/19 5/129/19 1/131/19 
f 33/115/19 29/117/19 1/131/19 
f 35/132/19 33/115/19 1/131/19 
f 109/133/20 110/134/20 111/135/20 
f 111/135/20 112/136/20 113/137/20 
f 113/137/20 114/138/20 115/139/20 
f 111/135/20 113/137/20 115/139/20 
f 115/139/20 116/140/20 117/141/20 
f 117/141/20 118/142/20 119/143/20 
f 115/139/20 117/141/20 119/143/20 
f 119/143/20 120/144/20 121/145/20 
f 121/145/20 122/146/20 123/147/20 
f 119/143/20 121/145/20 123/147/20 
f 115/139/20 119/143/20 123/147/20 
f 111/135/20 115/139/20 123/147/20 
f 123/147/20 124/148/20 125/149/20 
f 111/135/20 123/147/20 125/149/20 
f 109/133/20 111/135/20 125/149/20 
f 126/150/20 109/133/20 125/149/20 
f 92/97/20 91/96/20 127/133/20 
f 127/133/20 128/150/20 92/97/20 
f 91/96/20 93/98/20 129/134/20 
f 129/134/20 127/133/20 91/96/20 
f 93/98/20 94/99/20 130/135/20 
f 130/135/20 129/134/20 93/98/20 
f 94/99/20 95/100/20 131/136/20 
f 131/136/20 130/135/20 94/99/20 
f 95/100/20 96/101/20 132/137/20 
f 132/137/20 131/136/20 95/100/20 
f 96/103/20 97/102/20 133/138/20 
f 133/138/20 132/137/20 96/103/20 
f 97/102/20 98/104/20 134/139/20 
f 134/139/20 133/138/20 97/102/20 
f 98/104/20 99/105/20 135/140/20 
f 135/140/20 134/139/20 98/104/20 
f 99/105/20 100/106/20 136/141/20 
f 136/141/20 135/140/20 99/105/20 
f 100/106/20 101/107/20 137/142/20 
f 137/142/20 136/141/20 100/106/20 
f 101/107/20 102/108/20 138/143/20 
f 138/143/20 137/142/20 101/107/20 
f 102/108/20 103/109/20 139/144/20 
f 139/144/20 138/143/20 102/108/20 
f 103/109/20 104/110/20 140/145/20 
f 140/145/20 139/144/20 103/109/20 
f 104/110/20 105/111/20 141/146/20 
f 141/146/20 140/145/20 104/110/20 
f 105/111/20 106/112/20 142/147/20 
f 142/147/20 141/146/20 105/111/20 
f 106/112/20 107/113/20 143/148/20 
f 143/148/20 142/147/20 106/112/20 
f 107/113/20 108/114/20 144/149/20 
f 144/149/20 143/148/20 107/113/20 
f 108/114/20 92/97/20 128/150/20 
f 128/150/20 144/149/20 108/114/20 
f 128/150/21 127/133/21 145/133/21 
f 145/133/21 146/150/21 128/150/21 
f 127/133/22 129/134/22 147/134/22 
f 147/134/22 145/133/22 127/133/22 
f 129/134/23 130/135/23 148/135/23 
f 148/135/23 147/134/23 129/134/23 
f 130/135/24 131/136/24 149/136/24 
f 149/136/24 148/135/24 130/135/24 
f 131/136/25 132/137/25 150/137/25 
f 150/137/25 149/136/25 131/136/25 
f 132/137/26 133/138/26 151/138/26 
f 151/138/26 150/137/26 132/137/26 
f 133/138/27 134/139/27 152/139/27 
f 152/139/27 151/138/27 133/138/27 
f 134/139/28 135/140/28 153/140/28 
f 153/140/28 152/139/28 134/139/28 
f 135/140/29 136/141/29 154/141/29 
f 154/141/29 153/140/29 135/140/29 
f 136/141/30 137/142/30 155/142/30 
f 155/142/30 154/141/30 136/141/30 
f 137/142/31 138/143/31 156/143/31 
f 156/143/31 155/142/31 137/142/31 
f 138/143/32 139/144/32 157/144/32 
f 157/144/32 156/143/32 138/143/32 
f 139/144/33 140/145/33 158/145/33 
f 158/145/33 157/144/33 139/144/33 
f 140/145/34 141/146/34 159/146/34 
f 159/146/34 158/145/34 140/145/34 
f 141/146/35 142/147/35 160/147/35 
f 160/147/35 159/146/35 141/146/35 
f 142/147/36 143/148/36 161/148/36 
f 161/148/36 160/147/36 142/147/36 
f 143/148/37 144/149/37 162/149/37 
f 162/149/37 161/148/37 143/148/37 
f 144/149/38 128/150/38 146/150/38 
f 146/150/38 162/149/38 144/149/38 
f 146/150/39 145/133/39 109/133/39 
f 109/133/39 126/150/39 146/150/39 
f 145/133/40 147/134/40 110/134/40 
f 110/134/40 109/133/40 145/133/40 
f 147/134/41 148/135/41 111/135/41 
f 111/135/41 110/134/41 147/134/41 
f 148/135/42 149/136/42 112/136/42 
f 112/136/42 111/135/42 148/135/42 
f 149/136/43 150/137/43 113/137/43 
f 113/137/43 112/136/43 149/136/43 
f 150/137/44 151/138/44 114/138/44 
f 114/138/44 113/137/44 150/137/44 
f 151/138/45 152/139/45 115/139/45 
f 115/139/45 114/138/45 151/138/45 
f 152/139/46 153/140/46 116/140/46 
f 116/140/46 115/139/46 152/139/46 
f 153/140/47 154/141/47 117/141/47 
f 117/141/47 116/140/47 153/140/47 
f 154/141/48 155/142/48 118/142/48 
f 118/142/48 117/141/48 154/141/48 
f 155/142/49 156/143/49 119/143/49 
f 119/143/49 118/142/49 155/142/49 
f 156/143/50 157/144/50 120/144/50 
f 120/144/50 119/143/50 156/143/50 
f 157/144/51 158/145/51 121/145/51 
f 121/145/51 120/144/51 157/144/51 
f 158/145/52 159/146/52 122/146/52 
f 122/146/52 121/145/52 158/145/52 
f 159/146/53 160/147/53 123/147/53 
f 123/147/53 122/146/53 159/146/53 
f 160/147/54 161/148/54 124/148/54 
f 124/148/54 123/147/54 160/147/54 
f 161/148/55 162/149/55 125/149/55 
f 125/149/55 124/148/55 161/148/55 
f 162/149/56 146/150/56 126/150/56 
f 126/150/56 125/149/56 162/149/56 
# 320 faces

